<svg xmlns="http://www.w3.org/2000/svg" viewBox="0 0 502.773 502.773"  xmlns:v="https://vecta.io/nano"><path d="M203.002 153.067l-22.713-22.713c-12.994 7.804-23.826 15.9-28.663 21.274-5.385 4.838-13.47 15.67-21.274 28.663L176 225.93c14.495 14.495 21.416 45.268 42.196 67.116 4.564 4.793 9.596 9.12 14.874 13.118 14.495 11 39.998 16.825 55.896 32.724l120.188 120.196 24.964-24.973 24.973-24.964L338.894 288.96c-15.907-15.907-20.842-42.302-31.832-56.797-4-5.28-8.324-10.3-13.118-14.874-21.848-20.78-53.522-26.8-68.017-41.295l-22.925-22.926m-76.242-26.304c2.57-2.57 11.714-13.038 25.626-24.302L130.945 81c-2.366-2.366-6.206-2.366-8.572 0l-41.366 41.366c-2.366 2.366-2.366 6.206 0 8.572l21.45 21.442c11.264-13.912 21.734-23.057 24.303-25.626" fill="#d69c77"/><path d="M220.392 70.585c-50.812 6.727-87.976 50.52-93.634 56.18-5.65 5.658-49.443 42.814-56.18 93.634-.547 4.15-9.18 59.118-37.447 87.384l24.964 24.964c39.07-39.062 49.938-99.867 49.938-99.867 4.98-27.992 31.303-70.232 43.59-81.25 11.026-12.288 53.257-38.62 81.25-43.59 0 0 60.804-10.876 99.875-49.938l-24.973-24.973c-28.257 28.267-83.235 36.9-87.384 37.457" fill="#bd8366"/><path d="M58.1 332.75l-30.067 30.067c-4.078 4.078-10.7 4.078-14.77 0L3.06 352.622c-4.078-4.078-4.078-10.7 0-14.77l30.076-30.067L58.1 332.75zM332.75 58.1l30.067-30.067c4.078-4.078 4.078-10.7 0-14.77L352.62 3.06c-4.078-4.078-10.7-4.078-14.77 0l-30.067 30.076L332.75 58.1z" fill="#d69c77"/><path d="M502.773 415.387L415.38 502.77c-13.79-13.79-13.79-36.14 0-49.93l37.455-37.455c13.79-13.79 36.15-13.79 49.938 0h0z" fill="#bd8366"/><g fill="#c7cfe3"><path d="M389.98 398.805c-.318 0-.644-.018-.97-.053L38.306 360.15c-4.846-.53-8.342-4.9-7.812-9.737.538-4.846 4.793-8.342 9.746-7.812l350.694 38.603c4.846.53 8.35 4.9 7.812 9.737-.495 4.52-4.317 7.865-8.766 7.865"/><path d="M389.962 398.805c-4.45 0-8.27-3.346-8.766-7.865L342.602 40.237a8.83 8.83 0 0 1 7.812-9.737c4.864-.547 9.198 2.966 9.737 7.812l38.594 350.702a8.83 8.83 0 0 1-7.812 9.737c-.326.037-.653.054-.97.054"/></g><g fill="#bdc3c7"><path d="M434.11 442.94a8.8 8.8 0 0 1-6.241-2.587L70.483 82.967a8.82 8.82 0 1 1 12.482-12.482L440.35 427.87a8.82 8.82 0 0 1 0 12.482 8.8 8.8 0 0 1-6.241 2.587"/><path d="M95.45 58L57.995 95.456 33.02 33.027z"/></g></svg>