<?xml version="1.0" encoding="UTF-8"?>
<svg version="1.1" viewBox="0 0 697.17 458.98" xmlns="http://www.w3.org/2000/svg" xmlns:cc="http://creativecommons.org/ns#" xmlns:dc="http://purl.org/dc/elements/1.1/" xmlns:rdf="http://www.w3.org/1999/02/22-rdf-syntax-ns#">
<g transform="translate(853.17 -180.05)">
<path d="m-851.43 278.08 685.71-94.286v360l-682.86 94.286z" fill="#e6e6e6"/>
<path d="m-833.96 637.9c-0.2977-0.77581-0.23478-1.717 0.13982-2.0917 0.3746-0.3746 0.6912-1.2061 0.70354-1.8478 0.0123-0.64167 0.79984-1.0344 1.75-0.87283 0.95016 0.16161 1.7276-0.14014 1.7276-0.67055 0-1.2919 7.6323-2.8652 22.5-4.6382 7.3744-0.87941 15.961-2.276 20.515-3.3366 2.4831-0.57837 7.2081-1.3028 10.5-1.6099 3.2919-0.30708 9.5852-1.2122 13.985-2.0114 11.941-2.1689 34.915-5.0397 47.983-5.9957 19.603-1.4341 34.204-3.2108 45.017-5.4775 6.7208-1.4089 19.357-2.9053 34.5-4.0856 6.875-0.53585 16.44-1.6952 21.255-2.5762 4.8155-0.88107 9.4022-1.3538 10.193-1.0504 0.79048 0.30334 2.9255 0.11977 4.7445-0.40792s6.2323-1.1974 9.8073-1.4881c3.575-0.29077 9.425-1.1506 13-1.9107 3.575-0.76012 13.025-2.1192 21-3.0201 7.975-0.90096 16.525-2.0457 19-2.544 2.475-0.49822 6.8218-1.1252 9.6596-1.3934 4.4911-0.42434 8.0015-0.92616 21.552-3.0809 1.622-0.25792 3.3366 0.19414 4.2676 1.1252 1.4084 1.4084 1.7209 1.3617 3.2887-0.49168 1.3271-1.5689 3.7208-2.2874 10.232-3.0713 4.675-0.56283 10.75-1.4297 13.5-1.9264 2.75-0.49671 9.05-1.2237 14-1.6156s9.2809-0.88505 9.6242-1.0959c1.044-0.6412 46.354-6.5453 53.376-6.955 7.7236-0.45073 19.015-1.5245 20.5-1.9494 0.825-0.23611 3.975-0.68965 7-1.0078 3.025-0.31821 6.175-0.76777 7-0.99903s5.7512-0.66818 10.947-0.97092c5.1959-0.30274 14.646-1.4113 21-2.4634 6.3541-1.0521 14.254-2.1979 17.555-2.5462 3.3012-0.34829 6.9012-0.7909 8-0.9836 1.0988-0.19269 4.3662-0.67183 7.261-1.0648 2.8948-0.39293 5.4967-1.0922 5.782-1.5539 0.28535-0.4617 1.0901-0.62024 1.7883-0.35232 1.2091 0.46398 21.242-2.1981 22.545-2.9958 0.34196-0.20945 3.7717-0.68205 7.6217-1.0502 3.85-0.36816 10.6-1.3526 15-2.1877 10.497-1.9923 27.515-4.5479 38.5-5.7815 5.9274-0.66568 15.421-1.8531 17-2.1264 0.825-0.14276 3.975-0.53349 7-0.86829s7.1653-0.79608 9.2007-1.025c2.0354-0.22898 4.6735-0.93697 5.8626-1.5733 1.8769-1.0045 2.0738-1.7045 1.4939-5.3116-0.36738-2.285-0.61173-10.23-0.543-17.655 0.28575-30.87-0.12045-114.98-0.58434-121-0.51448-6.6749-1.7148-39.919-1.5707-43.5 0.42179-10.479-0.47057-81.508-1.4573-116-1.333-46.594-1.4252-47.513-4.763-47.476-1.1763 0.0131-3.9387 0.49926-6.1387 1.0803-2.2 0.58105-8.05 1.439-13 1.9065-4.95 0.46751-12.15 1.3296-16 1.9157s-12.4 1.7289-19 2.5396c-6.6 0.81066-14.475 1.9818-17.5 2.6024-3.025 0.62067-7.3 1.2477-9.5 1.3934-6.3503 0.42054-19.343 2.2728-27.5 3.9205-4.125 0.83323-8.625 1.533-10 1.5551-4.3944 0.0706-12.661 0.83069-15.627 1.4368-1.5803 0.32295-4.8983 0.83085-7.3733 1.1287-4.8971 0.58926-15.579 2.0137-26.314 3.5092-3.7478 0.52208-7.2181 1.1989-7.7118 1.504-0.49368 0.30511-5.5273 0.97703-11.186 1.4931-5.6585 0.51612-11.413 1.2075-12.788 1.5365-1.375 0.32896-5.875 0.99786-10 1.4864-10.894 1.2903-14.782 1.8134-21.5 2.8919-11.248 1.806-20.99 3.0094-29.5 3.6442-4.675 0.34871-8.746 0.78351-9.0466 0.96623-0.30064 0.18273-4.556 0.6211-9.4564 0.97416s-9.6044 0.97637-10.453 1.3851c-0.849 0.40877-3.3436 0.85871-5.5436 0.99988-2.2 0.14116-5.8 0.66185-8 1.1571-2.2 0.49523-6.7 0.91499-10 0.93279s-11.175 1.1065-17.5 2.4193-14.339 2.4242-17.81 2.4699c-3.4703 0.0456-6.6556 0.29681-7.0785 0.55816-0.42288 0.26136-3.6586 0.74188-7.1904 1.0678-3.5318 0.32594-9.3465 1.0038-12.922 1.5064-3.575 0.50261-10.688 1.1859-15.807 1.5185-5.1188 0.33258-12.319 1.2534-16 2.0463-3.6812 0.79286-14.793 2.3732-24.693 3.512-9.9 1.1387-19.125 2.2749-20.5 2.5248s-3.85 0.61428-5.5 0.80973c-6.6915 0.79266-13.924 1.7807-15.902 2.1725-1.154 0.22857-5.9232 0.67723-10.598 0.99703-4.675 0.3198-9.175 0.83996-10 1.1559-0.825 0.31596-3.975 0.69907-7 0.85136s-6.85 0.53037-8.5 0.84017-4.8 0.77339-7 1.0302c-11.217 1.3095-17.765 2.5115-18.925 3.4743-0.70869 0.58816-2.5904 0.82362-4.1817 0.52326-2.3058-0.43523-20.022 1.7484-40.393 4.9788-1.375 0.21804-7.0288 0.80498-12.564 1.3043-5.5352 0.49933-10.521 1.1902-11.079 1.5354-0.5584 0.3451-7.0546 1.3608-14.436 2.2571-11.299 1.372-21.74 3.0091-45.758 7.1746-2.1627 0.37509-3.7061 1.3878-4.3846 2.8769-0.73267 1.608-0.67355 15.902 0.19688 47.605 1.2599 45.889 2.2976 94.063 2.0852 96.807-0.0639 0.825-0.31427 7.8-0.55648 15.5-0.2422 7.7-0.67098 20.75-0.95284 29-1.2433 36.391-1.8653 90.837-1.2396 108.5 0.73532 20.756 0.57981 37.509-0.35687 38.446-0.60567 0.60565-0.95425 0.51588-0.95425-0.24576 0-0.66-0.93032-1.2-2.0674-1.2-1.6123 0-1.9277-0.44024-1.4326-2 0.34913-1.1 0.26026-2-0.19749-2s-0.87221-2.4114-0.92103-5.3587c-0.0488-2.9473-0.36443-5.8047-0.70136-6.3499-1.9435-3.1447-2.3822-51.675-1.6703-184.79 0.0559-10.45-0.14376-28.675-0.44366-40.5s-0.72087-39.382-0.93548-61.237c-0.34608-35.243-0.20589-40.103 1.2396-42.974 1.3395-2.6601 4.0339-4.4357 15.13-9.97 7.425-3.7034 14.255-6.7527 15.179-6.7761 0.92322-0.0235 2.2732-0.60599 3-1.2945 0.72679-0.68851 3.7964-2.096 6.8214-3.1279 3.025-1.0318 6.5818-2.5493 7.9041-3.3722 1.9802-1.2323 2.1409-1.6435 0.91131-2.3316-2.6815-1.5007-49.815-48.769-49.815-49.958 0-2.5846 3.331-7.93 5.3465-8.5797 1.1844-0.38179 18.804-0.83193 39.154-1.0003 36.48-0.30181 41.982-0.42947 88.5-2.0534 12.925-0.45121 25.638-0.77289 28.25-0.71485 24.806 0.55107 27.99 1.6259 29.295 9.8892 0.34758 2.2 0.78554 13.225 0.97326 24.5 0.39091 23.48 0.61294 25.829 2.5615 27.094 1.6982 1.1028 10.479 0.286 17.42-1.6203 2.75-0.7553 7.25-1.3661 10-1.3573 6.5285 0.0209 21.64-1.7544 30.209-3.5489 3.7351-0.78221 9.4911-1.6916 12.791-2.021 11.79-1.1766 13.449-1.3971 14.253-1.894 0.4481-0.27695 4.6245-0.7997 9.2808-1.1617 4.6563-0.36199 9.5911-0.87121 10.966-1.1316 1.375-0.2604 7.225-0.87925 13-1.3752 5.775-0.49598 11.607-1.1376 12.96-1.4259 3.4496-0.73503 8.4024-1.3604 16.54-2.0884 3.85-0.34442 10.15-1.226 14-1.959 3.85-0.73307 9.25-1.5874 12-1.8986 2.75-0.31118 7.475-1.0365 10.5-1.6118 3.025-0.57529 8.2-1.2631 11.5-1.5284 3.3-0.26536 10.725-1.1332 16.5-1.9285 5.775-0.79532 14.325-1.9313 19-2.5244s13.45-1.7599 19.5-2.5928c6.05-0.83295 14.6-1.9112 19-2.3962 4.4-0.48497 10.214-1.384 12.919-1.9979 2.7055-0.61388 5.5056-0.89106 6.2226-0.61595 0.71694 0.27512 5.0284-0.1642 9.581-0.97626s10.527-1.7282 13.277-2.0359c2.75-0.30771 9.5-1.2193 15-2.0258 16.522-2.4226 23.727-3.4068 29.253-3.9958 6.9677-0.74272 7.5774-0.84601 8.7474-1.482 0.55-0.29898 4.0282-0.65259 7.7294-0.7858 3.7012-0.1332 8.2012-0.66815 10-1.1888 1.7988-0.52063 7.0956-1.3908 11.771-1.9337 14.185-1.6473 16.325-1.9154 21-2.6304 2.475-0.3786 5.175-0.85368 6-1.0557 0.825-0.20205 3.975-0.52768 7-0.72362 6.2479-0.40469 16.283-1.524 20-2.2308 1.375-0.26146 5.425-0.85565 9-1.3204 8.1564-1.0604 24.321-3.7898 29.178-4.9267 4.5371-1.0621 7.556 0.27537 9.9765 4.4199 1.5628 2.6759 1.8276 7.0577 2.3268 38.498 1.1217 70.646 1.3777 83.785 1.9868 101.98 1.0016 29.912 1.6466 84.707 1.6657 141.5 0.01 29.15 0.0609 56.6 0.1134 61 0.20052 16.788 0.0888 18.141-1.8194 22.037-1.0601 2.1642-3.0524 4.4845-4.4274 5.1562-2.6453 1.2923-14.152 6.5137-15 6.8068-0.80645 0.27863-2.9028 0.97373-13.997 4.6412-6.4867 2.1443-10.607 4.0405-10.785 4.9632-0.15815 0.82121 4.4872 6.4212 10.323 12.444 5.8358 6.0232 11.936 12.847 13.557 15.164 1.6206 2.3171 3.5003 4.5671 4.177 5 0.67672 0.43289 2.984 3.4871 5.1272 6.7871 2.1433 3.3 6.1125 8.5742 8.8205 11.721 7.5138 8.7299 5.5926 12.396-6.9726 13.304-29.335 2.1198-174.82 2.225-178.06 0.12876-2.8715-1.8546-3.4862-6.7648-3.8996-31.153-0.49307-29.088-0.29349-28.461-8.4948-26.711-8.9664 1.9126-19.904 3.1076-28.707 3.1364-4.6273 0.0151-9.8023 0.47257-11.5 1.0166-2.987 0.95711-12.491 2.1297-32.869 4.0554-5.3801 0.5084-10.128 1.1385-10.552 1.4003-0.42355 0.26177-4.1217 0.76053-8.2181 1.1084-4.0964 0.34783-8.123 0.88063-8.948 1.184-0.825 0.30338-4.425 0.92373-8 1.3786-3.575 0.45483-9.2 1.2573-12.5 1.7834-3.3 0.52602-8.475 1.2062-11.5 1.5114-13.346 1.3468-17.611 1.9675-19.231 2.7988-1.4998 0.7695-8.8333 2.0266-19.269 3.3029-1.65 0.20181-4.35 0.63063-6 0.95293s-5.7 0.81101-9 1.086c-5.636 0.4697-13.759 1.5195-16 2.0677-3.0907 0.75618-8.1794 1.5207-12.776 1.9194-8.2548 0.716-21.638 2.2948-28.724 3.3885-3.575 0.55182-11.647 1.2841-17.938 1.6272-6.2908 0.34315-12.141 0.98885-13 1.4349-0.85924 0.44603-4.2212 1.092-7.4711 1.4355s-13.825 1.7306-23.5 3.0824c-17.36 2.4256-42.331 5.3868-51.091 6.0588-2.475 0.18984-6.525 0.81489-9 1.389s-6.4421 1.0548-8.8157 1.0683c-2.3737 0.0134-5.0737 0.42995-6 0.92555-0.92634 0.49561-4.1593 1.1878-7.1843 1.5382-3.025 0.35043-6.625 0.854-8 1.119-1.375 0.26504-3.85 0.6521-5.5 0.86013-4.3761 0.55174-12.689 1.7796-15 2.2158-5.662 1.0683-14.959 2.4163-23 3.3349-4.95 0.56546-10.575 1.2813-12.5 1.5907-1.925 0.30942-8.0629 0.76379-13.64 1.0097-8.1078 0.35751-10.248 0.16444-10.681-0.96345z"/>
<path d="m-687.16 194.06-19 0.625c-10.45 0.33778-23.725 0.86967-29.5 1.1875s-19.95 0.77644-31.5 1c-17.527 0.33925-29.427 0.76397-43 1.5938-1.1 0.0673-6.95 1e-3 -13-0.15625-9.7031-0.25196-11.015-0.0974-11.312 1.4062-0.22128 1.1174 4.7037 6.6676 14.344 16.062 8.0881 7.8825 15.446 15.421 16.344 16.781 1.6694 2.5291 9.7873 9.7253 10.969 9.7188 0.36047-2e-3 4.1805-1.3042 8.4688-2.9062 4.2883-1.6021 8.3383-3.3595 9-3.9062 0.66171-0.54673 2.8634-1.3058 4.9062-1.6875 2.0429-0.38175 4.2102-1.3055 4.8125-2.0312 0.97985-1.1806 8.846-5.209 23.469-12.031 2.75-1.283 7.25-3.032 10-3.9062 2.75-0.87428 6.125-2.3795 7.5-3.3438 2.0975-1.471 18.941-8.697 30.688-13.156 1.7477-0.66348 3.9977-2.1087 5-3.2188l1.8125-2.0312zm475.04 383.22c-2.5672 0-6.574 1.5497-18.031 6.9375-4.4 2.0691-9.575 4.3493-11.5 5.0938-1.925 0.74448-3.725 1.6395-4 1.9688-0.275 0.32929-2.525 1.2266-5 2-2.475 0.77338-5.4 1.9405-6.5 2.5938-1.1 0.65321-6.05 2.8686-11 4.9375s-9.675 4.3173-10.5 5c-0.825 0.68268-3.0184 1.5981-4.9062 2-1.8878 0.40194-5.0211 1.6111-6.9375 2.6875s-6.6667 3.2125-10.562 4.7812c-3.8958 1.5688-8.9703 3.7984-11.281 4.9375-2.3109 1.1391-4.7146 2.0625-5.3438 2.0625-1.5191 0-6.9688 3.9087-6.9688 5 0 1.0692 3.1509 1.8624 4.5 1.125 0.55-0.30063 22.375-0.66313 48.5-0.78125 46.2-0.20889 85.413-0.96227 91.5-1.7812 1.65-0.222 4.4625-0.43086 6.25-0.46875 1.7875-0.0379 3.25-0.47645 3.25-0.96875 0-0.49231-1.9125-2.9992-4.25-5.5625-9.2463-10.139-15.437-17.429-23.75-27.969-8.8391-11.207-11.17-13.594-13.469-13.594z" fill="#b3b3b3"/>
</g>
<metadata>
<rdf:RDF>
<cc:Work>
<dc:format>image/svg+xml</dc:format>
<dc:type rdf:resource="http://purl.org/dc/dcmitype/StillImage"/>
<cc:license rdf:resource="http://creativecommons.org/licenses/publicdomain/"/>
<dc:publisher>
<cc:Agent rdf:about="http://openclipart.org/">
<dc:title>Openclipart</dc:title>
</cc:Agent>
</dc:publisher>
<dc:title>Banner</dc:title>
<dc:date>2013-08-01T23:02:57</dc:date>
<dc:description>Blank banner, traced from http://commons.wikimedia.org/wiki/File:Original_ARCelebrity_Series_Logo.jpg</dc:description>
<dc:source>https://openclipart.org/detail/181412/banner-by-liftarn-181412</dc:source>
<dc:creator>
<cc:Agent>
<dc:title>liftarn</dc:title>
</cc:Agent>
</dc:creator>
<dc:subject>
<rdf:Bag>
<rdf:li>banner</rdf:li>
<rdf:li>sign</rdf:li>
<rdf:li>template</rdf:li>
</rdf:Bag>
</dc:subject>
</cc:Work>
<cc:License rdf:about="http://creativecommons.org/licenses/publicdomain/">
<cc:permits rdf:resource="http://creativecommons.org/ns#Reproduction"/>
<cc:permits rdf:resource="http://creativecommons.org/ns#Distribution"/>
<cc:permits rdf:resource="http://creativecommons.org/ns#DerivativeWorks"/>
</cc:License>
</rdf:RDF>
</metadata>
</svg>
