<svg xmlns="http://www.w3.org/2000/svg" width="744.094" height="1052.362"  xmlns:v="https://vecta.io/nano"><style><![CDATA[.B{stroke-width:.442}.C{fill:#e5b68f}.D{stroke:#e5b68f}.E{stroke-width:1.769}.F{stroke-width:.625}.G{stroke-width:.313}.H{fill:#dcba78}.I{stroke:#dcba78}.J{stroke-width:.884}.K{stroke-width:.156}.L{stroke-width:.221}]]></style><g transform="matrix(.999249 .038761 -.038761 .999249 20.912525 -14.125292)"><g stroke-linejoin="round"><path d="M313.163 188.714c-13.672 4.187-9.303 22.476-6.412 32.722 7.26 17.327 24.095 32.004 42.546 35.04 9.735-.133 24.3-6.255 20.078-18.404-.952-4.612-8.892-6.14-3.26-10.668 4.294-12.677-11.62-17.074-17.687-25.26-8.267-9.478-22.21-6.2-31.727-13.1-1.14-.3-2.357-.494-3.537-.332z" class="C D E"/><g stroke-width="1.251"><path d="M303.78 213.78c-10.262 7.148-22.465 12.13-31.094 21.5-3 2.465-1.343 5.744.375 8.625-.883-1.548-2.03-3.087-2.78-4.656-1.3-1.84-3.417-3.2-5.75-3-10.298 1.257-20.655 2.932-31.094 3.094-4.586 1.272-4.8 6.933-3.47 10.688.215 2.334.934 5.12 2.406 7.22-1.387-1.783-2.462-3.92-4.687-4.562-4.848-.074-8.928 3.447-13.22 5.28-6.628 3.348-12.057 8.704-15.125 15.47-14.54 25.53-25.925 53.132-43.937 76.47-6.647 9.435-12.165 21.225-9.97 33.03 1.7 5.486 7.395 8 11.188 11.875 17.947 15.367 40.676 23.103 62.656 30.72 3.66.43 8.283 4.748 11.53 1.438.958-1.73 1.434-3.576 1.906-5.5-.317 3.7-.263 7.44.125 11.156 2.464 6.655 10.58 7.38 16.188 10.094 4.65 1.728 11.15 4.513 15.375.72 2.71-5.077 2.184-11.2 4.438-16.47 2.684-10.257 7.074-20.246 8.906-30.594-5.694-7.437-14.962-11.242-23.187-15.375-2.246-.822-4.48-2.077-6.97-1.812-2.943.778-4.7 2.76-6 5.188.26-.784.427-1.633.72-2.406 2.163-2.92 1.064-7.06-2.5-8.156-3.627-2.823-9.634-5.024-12.97-.625-1.95 2.106-2.123 5.24-3.375 7.688-.047-2.995-2.767-5.455-5.75-4.312-3.068-.153-7.502.906-9.72-.125 1.627-2.636 5.182-7.48.844-9.47-4.717-2.912-10.863-4.64-15.97-1.687-.642.25-4.38 1.863-3.375.97 4.87-3.546 11.058-5.326 15.25-9.625 1.45-3.744-2.487-6.57-3.125-10.062-.998-1.586-2.425-4.726.72-4.344 5.253.402 7.796 5.876 12 8.406 4.197 3.462 9.226.158 12.75-2.5 11.353-8.133 19.28-20 26.75-31.594-2.593 8.252-3.02 17.337-8.406 24.5-4.31 7.343-14.53 10.54-15.594 19.813-.887 6.378 5.587 9.546 10.563 11.28 13.236 5.372 25.54 12.708 38.063 19.563 8.22 3.203 17.623-.51 22.906-7.22 21.125-21.292 41.386-43.826 60.375-67.094 2.777-3.203 4.697-7.863 1.813-11.625-2.766-4.294-6.245-7.968-10.094-11.187.714.525 1.5 1.016 2.188 1.563 3.723 2.908 6.54 7.857 11.28 8.906 3.838-1.912.938-6.193.22-9.03-4.472-10.903-7.96-22.645-15.594-31.78l-3.125-2.906c-11.366-10.275-23.05-20.108-33.25-31.562-3.92-4.544-5.442-10.8-9.25-15.375-.625-.495-1.362-.68-2.156-.594zm44.656 47.53c2.074 1.768 4.77 2.8 7.313 2.156 4.078-1.84 6.96-8.833 2.906-12-.912-.626-2.017-.948-3.125-.844-3.86.797-9.293 2.282-9.844 6.844a9.99 9.99 0 0 0 2.75 3.844zm-49.687-29.187c.24-.007.5.004.72.03 2.974.173 2.594 4.114 1.063 5.75-1.318 2.958-6.135 5.396-8.28 1.938-1.596-3.673 2.92-7.608 6.5-7.72zm-1.22.875c-2.677-.004-5.237 3.305-3.594 5.75 1.234 1.525 3.42.358 4.313-.97 1.14-1.045 2.29-3.27.72-4.437-.425-.264-.945-.38-1.437-.344zm76.563 2c-.303-.01-.63-.005-.937.03-5.727 1.905-5.323 8.85-7.562 13.438-2.35 6.98-7.62 13.343-7.906 20.906 1.33 8.865 7.277 16.008 9.47 24.594.674 2.542 3.5 5.25 5.906 2.875 4.12-5.175 6.638-11.546 10.063-17.28 1.942-4.405 4.978-8.903 4.938-13.812-.708-2.194-1.988-3.965-3.5-5.625.338.244.79.49 1.22.594 3.02 2.915 8.31-1.827 5.03-4.906-.52-.553-1.128-.996-1.812-1.344 1.59.406 3.206.728 4.813.72 5.127-1.68 2.753-9.944-2.03-10.437-1.964-.716-5.347-.355-6.625-.937 2.367-3.384-2.258-6.092-5.03-6.844-1.915-.83-3.912-1.91-6.03-1.97zm-100.906 9.156c.525.872 1.042 1.775 1.438 2.53 1.293 1.783 2.487 3.708 3.72 5.625-1.012-.877-2.17-1.522-3.594-1.78l-.97.22c.358-.402.64-.76.844-1.312.098-1.93-.53-3.65-1.437-5.28zM308.22 248c-4.697 6.585-11.93 11.936-14.28 19.813.108.547.226 1.04.47 1.438-.786-.75-1.258-1.654-1.53-2.75 1.684-2.127 2.013-6.7-1.562-7.094-1.777-.126-3.568 1.186-5.28 1.563-.683.15-1.288.208-1.937-.125-.576-.97-1.192-2.04-1.78-3.125 1.093 1.21 2.338 2.37 3.72 3.25 7.847-3.394 14.893-8.543 22.188-12.97zm69.03 3.47c.976-.035 3.333.704 4.188.844 1.646.366 3.273.926 4.938 1.438-.196-.008-.398-.015-.594 0-3.1.11-3.502 3.482-2.062 5.53-2.096-2.154-4.436-4.175-6.125-6.594-1.056-.916-.93-1.197-.344-1.22zm30 2.063c-4.785.04-4.46 5.87-4.187 9.22-.222 2.143.635 4.58 1.688 6.125-6.778 3.676-6.632 12.532-10.562 18.375-4.996 10.864-12.037 20.78-17.53 31.344-.324 2.96 2.185 3.806 4.78 4.063-1.88.368-3.626 1.038-5.28 2.063-3.51 4.745.64 11.58 6.125 12.22 5.25 1.895 10.01 5.298 15.5 6.375 7.458-2.808 14.98-6.1 21.375-10.812 2.43-3.357-1.27-7.348-4.812-7.437-1.652-.484-3.26-1.005-4.937-1.437.866-.066 1.67-.253 2.53-.375 1.35-.875 1.653-2.61.97-3.937 2.486.854 2.89 3.476 3.72 5.5 1.61 2.365 6.682 4.158 4.688 7.688-2.394 3.624-6.98 7.74-4.22 12.5 1.912 4.7 6.25 7.732 8.53 12.25 7.713 10.525 18.374 18.717 25.344 29.5-3.103 1.488-5.867-2.61-8.656-3.594-4.508-3.062-11.72-5.456-16.094-1.062-1.64 3.46 2.672 5.344 5.156 6.344 4.24 2.358 9.242 4.852 12.25 8.406-3.72 2.05-8.03-.462-12-.125-3.506-.265-7.978-2.27-10.812.5-2.992 6.327 2.698 12.137 2.78 18.47 2.355 12.7 2.8 26.057 7.438 38.188 2.15 1.557 4.466 1.163 6.844.47-2.057.93-4.083 2.034-5.78 3.5-2.234 4.542 3.65 7.344 6.375 9.844 3.273 3.084 7.98 6.78 12.594 4.063 7.13-2.537 14.945-2.846 22.094-4.812 2.486-3.213-1.448-6.68-2.75-9.594-.134-.19-.358-.29-.5-.47 3.107.88 7.032-.492 6.75-4.312.37-12.27-2.092-24.417-3-36.625-1.912-16.518-3.682-33.057-3.625-49.687-7.86-16.082-13.69-32.994-19.062-50.062-5.744-16.604-11.753-33.56-21.75-48.03-2.208-2.17-5.66-.84-8.03-.47 2.415-3.18 3.187-7.98 1.78-11.656-5.028-1.836-10.37-2.58-15.72-2.5zm-109.22 17.875c1.85.477 3.988.77 5.5 1.563 3.778 1.026 7.5 2.183 11.28 3.375-4.38-1.293-8.872-2.484-13.312-3.5-1.082-.425-2.244-.888-3.47-1.437zm-43.5 23.875c.54 1.634 1.443 3.127 1.72 4.813-.552-1.368-1.346-3.51-1.72-4.812zm114.78 34.594a2.78 2.78 0 0 0-.719.125c-7.022 3.953-11.303 11.257-17.156 16.563-11.815 12.556-24.98 24.12-35.656 37.688-1.287 3.155 2.308 5.5 5.156 4.906 8.987 1.29 16.394 7.187 23.78 12 3.59 3.108 6.677 7.96 10.97 10.25 1.43.763 2.99 1.246 4.75 1.28 2.16-.77 3.802-2.625 6.25-2.406 5.16-1.926 3.954-8.65 5.156-12.937 2.99-21.342 2.052-43.115.594-64.47-.196-1.64-1.476-3.057-3.125-3zm-13.625 81.53c-3.78-2.08-7.957-3.775-12.25-3.875-5.59 3.27-.8 10.815 1.406 14.813 3.318 9.005 2.35 22.69 13.5 26.28 28.192 15.55 53.95 36.087 82.906 49.938 14.482 3.473 30.4 6.372 41.125 17.72 20.17 11.813 36.987 28.123 57.938 38.72 5.234 2.42 15.108 9.834 20.875 8.813 3.807-3.537 7.36-9.7 6.094-14.72-6.024-7.533-20.486-11.473-27.406-18.156-11.893-8.638-25.07-15.866-39.28-19.375-11.83-7.647-20.796-19.142-33.97-24.844-22.075-12.77-43.127-27.584-62.22-44.28-15.804-10.27-32.702-18.95-47.656-30.406l-1.062-.625zm-25.375-80.687l-.47.344h-.25c-7.56 3.576-13.466 10.066-21.125 13.344-2.93.064-5.887-.27-8.78-.625 2.822.304 5.586.272 8.406-.344 6.46-5.234 13.837-9.196 21.5-12.375.247-.103.47-.243.72-.344zm48.125 5.5c-3.113 1.8-1.853 6.493-2.5 9.625-.496 21.463-2.337 42.98-1.937 64.438 3.45 7.39 11.175 12.12 18.844 14.063 3.87.99 9.71.72 10.22-4.312 1.256-5.8 5.038-10.774 5.406-16.812 1.224-8.583 2.27-17.346 6.72-24.97 3.237-7.322 3-15.815 2.5-23.656-.785-5.06-2.1-11.04-6.594-14.03-4.662-1.923-8.26 2.78-12.125 4.188-3.508-1.26-6.634-3.422-10.187-4.687-3.368-1.353-6.68-3.583-10.344-3.844zm-104.78 3.97c3.87-.126 7.897.76 11.656.97 3.822.57 7.708 1.623 11.594 2.28-5.478-.784-10.918-1.746-16.53-1.562-4.192-.398-10.013-.202-13.437 0 2.087-1.14 4.398-1.612 6.72-1.687zM360.97 351c.033-.02.038-.017.063 0 3.514 1.474 3.535 8.66-.594 9.125-3.115-1.858-3.52-7.326.25-8.906.056.012.184-.157.28-.22zm-125.687 3.938c1.462 0 28.672 17.836 43.03 28.22 8.213 5.94 9.322 6.903 8.313 7.188-2.32.653-4.74.41-7.22-.75-1.39-.65-5.983-3.274-10.22-5.812-9.02-5.407-14.225-8.042-22.844-11.656-8.822-3.7-13.005-5.912-13.687-7.187-1.328-2.48.645-10 2.625-10zm125.875 27.28c1.56.733.1 3.64.594 5.03-.292 3.422-5.578 4.286-6.594.844-1.405-3.78 3.164-5.454 6-5.875zM416.5 387c-1.708.02-2.714 2.263-1.437 3.5 1.402 2.424 4.408 3.313 6.97 2.375 2.498-.43 5.635.15 7.688-1.562.923-1.974-1.665-2.972-3.125-3.22-3.3-.783-6.7-1.192-10.094-1.094zm-49.094 25.813c-1.872.015-2.12 2.664-.594 3.47 3.326 3.1 6.842 6.25 11.03 8.063 2.018.127 2.14-2.668.97-3.72-2.56-3.86-6.59-7.443-11.406-7.812zm-106.125 44.28l-1.312.25c-9.158 5.98-16.895 16.018-19.094 27.125-6.052 9.057-7.19 19.758-9.594 30.03-4.068 16.954-11.08 33.415-13.562 50.656 2.997 9.59 15.44 8.252 23.156 11.28 30.77 7.18 62.688 10.048 94.125 5.75 16.12-1.254 35.334-2 46.563-15.375 2.886-5.664 2.05-11.492.594-17.406 2.65 9.512 5.688 19.34 12.03 27.03 4.156 2.38 8.493-1.304 12.594-2.062 14.444-5.4 29.217-10.365 42.5-18.22 3.363-4.212-1.49-9.084-2.53-13.22-6.29-15.21-11.354-31.12-18.47-45.97-1.43-1.82-3.755-1.665-5.53-.594.658-1.002.852-2.314 0-3.625-6.176-6.25-13.855-11.153-21.5-15.47-1.52-.658-3.113-1.1-4.78-.97-5.045.253-8.455 5.455-7.562 10.22-.492 3.556 2.46 6.44 6 6.094 6.87 1.283 14.64.192 20.75 3.97.54 1.01 1.345 1.622 2.28 1.813-3.903-.098-7.79-2.977-11.875-2.656-5.88-.602-12.112.165-17.656-1.78-2.345-4.896-1.53-10.98-.22-15.97 2.084-1.197 7.673-1.508 6.47-5.28-2.324-2.636-6.014-3.773-8.75-6-1.706-.864-3.824-2.086-5.78-1.437-3.204 2.138-7.7 4.94-8.156 9-.072-.282-.175-.562-.25-.844-11.108-11.646-28.786-6.734-43.094-8.78-22.608-.566-45.935.74-67.344-7.562zm-32.53.47c-.157-.003-.31.01-.47.03-3.996 2.355-8.263 6.226-9 11.03.637 4.502 7.34 3.387 8.156-.47 1.578-2.86 5.55-7.077 2.656-10.22-.4-.258-.874-.367-1.344-.375zm115.844 25.72c.55.485 1.104.915 1.563 1.563.382 1.054.583 2.105.594 3.125-.28-1.765-1.045-3.355-2.156-4.687zm-70.344 10.906l5.875 2.78c-2.093-.727-4.054-1.7-5.875-2.78zm102.28 14.406c1.306 12.833 2.55 25.655 5.03 38.313-1.366-5.087-2.877-10.23-2.75-15.25-1.13-7.597-1.722-15.337-2.28-23.062z" fill="#859a9d" stroke="#859a9d"/><path d="M235.28 354.938c-1.98 0-3.953 7.52-2.625 10 .683 1.276 4.866 3.49 13.688 7.188 8.62 3.614 13.824 6.25 22.844 11.656 4.235 2.54 8.83 5.163 10.22 5.813 2.478 1.16 4.898 1.403 7.22.75 1-.284-.1-1.25-8.312-7.187-14.36-10.383-41.57-28.22-43.03-28.22zm108.156 52.594c-5.59 3.27-.8 10.815 1.406 14.813 3.318 9.005 2.35 22.69 13.5 26.28 28.192 15.55 53.95 36.087 82.906 49.938 14.482 3.473 30.4 6.372 41.125 17.72 20.17 11.813 36.987 28.123 57.938 38.72 5.234 2.42 15.108 9.834 20.875 8.813 3.807-3.537 7.36-9.7 6.094-14.72-6.024-7.533-20.486-11.473-27.406-18.156-11.893-8.638-25.07-15.866-39.28-19.375-11.83-7.647-20.796-19.142-33.97-24.844-22.075-12.77-43.127-27.584-62.22-44.28-15.804-10.27-32.702-18.95-47.656-30.406-4.06-2.343-8.608-4.4-13.312-4.5z" fill="#a5714e" stroke="#a5714e"/><path d="M382.515 884.052c-6.03 1.666-4.193 9.354-8.286 12.898-3.864 9.005-7.934 21.1-1.133 29.587 12.766 5.813 28.315-1.92 40.413 5.472 6.74 8.06 19.16 3.838 28.297 3.557 19.186-1.724 40.116 1.8 57.532-8.247 3.353-6.02-5.19-11.12-9.888-13.6-9.593-6.98-22.012-4.82-32.557-2.07-10.938-7.458-24.828-8.157-36.817-12.35-2.83-3.168-2.417-8.83-7.778-9.615-8.274-1.762-17.253-.6-24.78-5.12-1.612-.474-3.324-.842-5.003-.508z" fill="#4f4537" stroke="#4f4537"/></g><path d="M389.156 149.998c-13.007 1-26.432-.102-39.133 2.93-6.096 6.986-8.23 16.32-10.972 24.873-1.15 11.757 7.1 21.74 13.597 30.65 4.554 4.872 9.908 11.222 16.825 11.533 5.973-2.114 12.26-5.352 16.007-10.455.875-2.86-2.318-5.018-4.035-5.997 4.3-1.002 5.8-8.133.47-8.705-4.643-.957-9.785 3.58-13.183 3.814 5.25-7.608 15.047-7.507 22.966-10.308 5.023-2.1 1.456-8.813.83-12.768-1.286-4.876-3.587-10.23-2.57-15.255 4.7-.12 8.26-6.997 3.593-9.7-1.37-.635-2.9-.7-4.394-.608zm-20.727 13.376c1.265 1.4 2.277 4.402-.967 3.703-3.994.903 1.015-1.235.774-3.095.001-.146.105-.577.193-.608zm-49.354 224.722c-12.945 1.328-26.487.87-38.895 4.767-5.242 9.178-6.543 20.298-10.02 30.22-.535 4.187 4.008 6.318 7.517 5.085 3.394.223 8.255-2.986 10.087 1.4 5.4 7.487 12.295 17.778 22.966 16.084 3.842-1.248 7.794-3.073 11.607-1.023 5.616.533 7.676-7.142 9.728-9.535 2.6 8.48 2.954 18.262 8.236 25.564 3.732 3.355 10.848-.034 9.34-5.25.144-16.307-2.567-32.888-10.695-47.176-.63-2.087 4.273-.33 5.085-2.432 3.365-4.588-3.175-8.556-6.356-10.834-5.15-4.368-11.72-7.36-18.6-6.88z" class="C D J"/><g fill="#517a7b" stroke="#517a7b"><path d="M432.205 564.645c-12.664 1.497-25.088 10.17-37.586 8.125-2.9-6.446-11.416-11.35-16.97-4.643-19.12 11.273-42.55 8.74-64.006 10.944-25.114.842-50.032-4.17-74.73-5.86-13.48 6.152-5.486 22.92-3.002 33.302 6.766 22.598 17.755 46.704 12.4 70.4-11.602 7.387-12.424 24.12-5.14 34.933 4.768 13.1 1.097 29.166 9.065 41.068 1.972 2.114 13.8 7.27 6.19 5.748-8.502-3.56-17.323 6.318-11.22 14.04 12.175 21.04 39.07 26.37 61.574 26.642 7.65.174 16.228-5.557 16.527-12.27 8.892.572 13.31-8.448 11.607-16.195.866-6.448 10.784-4.12 13.32-10.17 9.24-10.638 3.938-24.778-.055-36.26-2.722-7.295 1.288-19.526-6.964-22.938-13.066.507-12.964 18.33-24.1 22.33 13.378-22.995 28.698-45.234 38.415-70.086 4.36-8.593-6.256-15.956-13.2-9.95-5.78 4.513 5.217-8 6.467-10.39 6.203-8.157 13.404-17.622 19.788-24.43-.093 14.576-6.395 28.2-10.06 41.842 8.978 20.684 32.768 28.15 48.178 42.694 3.093 2.902 9.105 6.123 1.79 5.117-5.5.648-7.516 8.105-4.698 11.386-11.81-5.312-18.324 10.512-22.994 18.516-5.364 11.102-6.937 30.354 8.346 33.772 6.206.33-4.73 7.1.497 11.718 9.162 9.198 22.567 15.188 35.706 15.808 10.046-.605 23.057-.964 29.792-9.175 2.96-4.145-5.8-8.276.442-10.115 6.787-6.164 20-6.505 22.994-16.25-.768-7.396-2.274-14.456-1.27-21.943 1.098-4.986-7.43-7.56-2.764-11.442 10.45-16.148 10.544-37.358.145-53.398-13.813-28.087-34.088-45.96-35.41-78.097-.528-6.68-.658-25.904-9.065-24.762zM309.057 775.07c3.427-1.786 2.094 6.213.72 5.583-5.155 2.2-3.78-2.654-6.356-5.25 1.865-.276 3.758-.274 5.638-.332z" class="E"/><path d="M392.386 687.793c-2.462.4-1.48 3.694.207 4.615 6.688 6.393 12.884 13.583 20.2 19.287 2.192.576 2.933-2.238 1.634-3.59-.423-.98-2.182-1.83-2.06-2.847 2.06-2-.92-4.318-2.708-5.044-5.617-4.13-10.897-8.916-16.914-12.436-.163.106-.224-.05-.36.014z" class="B"/></g><path d="M390.333 774.135l-.24.12c-3.078 1.853-3.55 6.306-4.682 9.483-1.464 5.245.695 9.963 3.96 13.925-1.128-.657-2.387-1.112-3.72-1.2-4.234 1.872-1.98 7.24-2.52 10.804-.042 7.724 2.897 16.35 10.564 19.567a56.38 56.38 0 0 0 2.401 1.2c-2.453-.957-4.855-2.033-7.202-3.24-.202.004-.4-.035-.6 0-3.592 1.026-1.487 5.844-2.16 8.523.2 5.158-.826 10.85.96 15.725 3.804 1.222 7.8 2.433 11.764 3.48-3.86-.655-7.752-1.288-11.644-1.44-3.322 2.04-3.196 7.032-4.682 10.443-.44 3.656-3.895 8.423-.12 11.164 8.997 8.697 22.275 14.37 34.812 11.404 5.297-2.58 4.67-9.445 6.722-14.165 1.29-4.65 4.678-9.726 2.64-14.525-.93-.93-1.916-1.11-3-1.08.838-.16 1.687-.26 2.52-.48 5.734-2.97 7.25-10.258 7.923-16.085-1.393-4.387-7.34-2.847-10.804-3.72-.644-.05-1.277-.178-1.92-.24 3.03.088 6.01.066 9.003-.24 5.65-.74 9.044-5.763 10.924-10.684 1.535-3.7 4.41-7.608 3.72-11.644-2.45-2.557-6.11-1.147-9.363-1.32 4.548-.59 9.027-1.638 12.724-4.44 4.475-4.476 6.21-10.904 8.643-16.566 1.12-3.158-1.76-6.344-5.042-5.282-12.416.994-25.36 6.452-37.453 1.2-8.277-2.8-15.838-7.873-24.128-10.684zm-59.78 18.126c-3.204.804-7.597 1.026-9.363 4.2-.243 2.957 3.598 2.7 5.522 2.76-.4.508-3.803 1.4-5.282 2.16-9.412 4.204-19.115 8.332-29.53 8.883-6.32.73-12.73.377-18.966 1.56-3.18 1.518-2.89 5.706-1.32 8.283 1.587 3.846 2.55 8.2 5.282 11.404 5.356 1.576 11.06.56 16.566 1.08 3.985.064 7.907.063 11.884.36l-20.887.24c-2.478.13-6.558.662-6.002 4.08 1.333 4.816 5.058 8.584 7.202 13.084 2.524 3.723 4.298 9.188 9.363 9.963 6.145.725 12.186-1.65 18.126-2.88 1.144-.22 6.98-2.056 4.562-1.08-7.043 2.73-14.55 4.36-22.087 4.922-3.252 1.04-2.184 5.224-2.76 7.803-.172 3.375-.59 7.874 3 9.603 7.13 4.41 16.203 2.255 23.528-.48 2.588-.946 5.765-2.407 8.043-3-4.363 5.2-11.244 6.995-17.766 6.962-5.902.317-11.968-.915-17.766-.12-2.372 1.743-1.4 5.905 1.44 6.482 7.51 5.637 14.87 12.265 24.128 14.765 3.605.148 6.895-1.766 10.443-2.28 3.67-1.3 9.03-1.607 10.203-6.122 1.326-4.338-1.702-8.3-1.68-12.604-1.26-10.727-2.214-21.52-4.802-32.05-1.282-6.867-.795-14.023-1.8-20.887-1.767-2.438-4.544.288-6.602.84-1.677.668-3.817 1.595-5.402 1.44 5.214-3.915 12.678-6.503 14.765-13.324 1.49-6.614 1.745-13.518 1.8-20.287-.106-2.476-.447-6.13-3.84-5.762zm-59.78.84c-4.796 1.35-2.848 7.13-3.6 10.684-1.37 4.597 4.034 7.232 7.803 5.882 14.107-.11 29.488.206 41.894-7.442 2.613-2.9-1.854-5.736-4.562-4.682-11.334.952-22.3-3.07-33.61-3.12-2.626-.373-5.253-1.366-7.923-1.32zm149.45 61.82c-1.003.23-2.018.226-3 .12 1.002-.027 2.002-.02 3-.12z" fill="#82735e" stroke="#82735e" class="B"/><g fill="#4f4537" stroke="#4f4537"><path d="M292.947 894.992c-1.773 1.873-1.168 4.96-2.26 7.266-2.112 6.707-4.63 13.487-4.5 20.66.014 4.604-.466 9.55 2.156 13.583.423 2.287 1.887 4.422 4.422 4.6 5.153-.027 10.673.905 14.343 4.92 2.65 2.472 3.6 6.053 5.9 8.802 1.44 1.677-.344 3.902 1.202 5.54 1.088 1.416 2.81 4.625 4.892 2.79.683-1.152 1.215-1.88 2.75-1.41 8.57.82 16.957 3.233 25.62 3.524 10.127.63 20.424.92 30.473-.316 4.395-1.232 8.987-2.028 13.276-3.305 1.076-3.547-.207-7.432-1.437-10.778-3.09-6.288-10.554-8.027-16.926-8.576-7.302-.774-14.756.693-21.973.216-.73-1.974 2.445-1.717 3.247-2.957 2.32-1.58.695-4.8-1.7-5.168-3.77-1.18-6.32 2.807-9.944 2.76-4.997.137-8.915 5.343-14.072 3.624-1.656-2.373-1.116-5.87-1.41-8.72-.44-8.683-3.703-17.38-9.314-24.016-4.755-3.913-11.02-5.142-16.098-8.553-2.8-1.495-5.3-3.978-8.43-4.615l-.207.124z" class="B"/><path d="M424.428 888.022c-5.636 1.042-9.625 10.287-3.44 13.328 5.145 2.718 11.192 3.63 16.923 3.987 2.827.2 4.486-3.34 2.052-5.12-4.313-4.77-9.04-10.143-15.223-12.214h-.137l-.176.02z" class="F"/><path d="M326.587 906.863c-2.974-.006-4.612 3.862-2.795 6.117.748 2.037 4.142 2.727 4.954.37 1.194 5.905-.433 12.6 2.892 17.97 1.252 1.912 3.76 1.255 5.267.147.79-.688 1.78-.506 2.355.362 1.546 1.225 4.522 2.095 5.804.166.327-2.314-2.187-3.636-3.205-5.384-4.328-4.88-8.127-10.358-10.025-16.65-.925-1.975-3.057-3.29-5.247-3.097z" class="G"/><path d="M337.367 913.885c-1.175.457-.57 1.934-.16 2.736 2.113 3.714 4.885 7.092 8.182 9.8.574.582 1.966.562 1.886-.498-.158-1.612-1.44-2.8-2.326-4.08a103.49 103.49 0 0 0-7.074-7.856c-.152-.093-.333-.122-.508-.103zm-3.797-6.488c-1.192.344-.882 1.875-.443 2.7.44.97 1.837 2.113 2.813 1.145.912-1.345-.468-2.847-1.563-3.576-.232-.17-.5-.3-.806-.278zm-2.852 27.858c-1.2-.098-2.076 1.114-1.883 2.242-.134 1.232.327 3.08 1.84 3.098 1.716-.217 2.925-1.787 3.615-3.244.074-1.35-1.593-1.774-2.628-2.023a3.9 3.9 0 0 0-.943-.073z" class="K"/></g><g fill="#2d271f" stroke="#62543f"><path d="M295.523 942.585c-4.842.45-11.264 4.124-9.654 9.83 2.782 4.757 9.057 2.82 13.23 5.335 3.58 1.366 9.743-.482 8.442-5.257-2.274-4.657-6.316-9.918-12.018-9.908z" class="F"/><path d="M321.084 962.84c-1.593 1.366.445 3.098 1.7 3.733 8.806 5.244 18.862 9.108 29.274 8.42 8.267.038 16.7-.117 24.594-2.83 3.895-.925 8.75-1.6 10.894-5.445.562-2.2-2.433-2.586-3.88-1.92-10.4 2.45-21.24 1.282-31.852 1.46-9.8-.028-19.724-.567-29.088-3.4-.534-.1-1.125-.3-1.632-.01zm81.852-35.167c-7.028.43-14.108.592-21.086 1.505-1.732.76-.448 3.2 1.15 3.07 8.04 2.386 16.7 2.267 24.9.906 2.17-.756 2.738-4.577.205-5.15-1.682-.4-3.44-.332-5.16-.332z" class="G"/></g><g stroke="#6c635e"><path d="M278.456 436.222c-2.69.344-2.508 3.595-3.6 5.402-.875 2.64-2.255 5.913-5.402 6.242-2.627.963-2.95 4.185-4.922 5.882-1.23 1.28-1.624 3.463.12 4.562 4.087 3.17 9.508 3.085 14.405 3.96 13.193 1.672 26.547 2.602 39.853 2.88 6.32-.03 12.71.24 18.966-.72 1.74-.434 3.61-2.588 2.04-4.2-3.794-4.1-4.66-9.806-6.482-14.885-.755-1.818-2.836-2.186-4.562-1.68-10.028.833-20.32 1.895-30.25-.12-1.722-.457-3.388-1.085-5.162-1.32.545-1.78-.284-4.023-2.4-4.08-4.124-1.096-8.353-1.673-12.604-1.92zm-33.73 7.563c-2.215.21-2.762 2.98-2.64 4.802-.065 1.353-.09 3.593 1.68 3.84 1.76.063 2.5-1.86 3.96-2.52 1.35-1.045 3.125-1.695 4.08-3.12-.6-1.435-2.497-1.457-3.72-2.16-1.08-.416-2.19-.904-3.36-.84zm108.036 6.002c-2.376 1.147-1.688 4.317-1.92 6.482.038 2.907-.832 6.565 1.56 8.763 1.938 1.17 4.128-.865 3.96-2.88.37-3.88-.582-7.796-1.92-11.404-.332-.6-.977-1.067-1.68-.96zm9.843 5.282c-2.366 1.093-1.542 4.16-1.68 6.242.226 2.495-.585 5.764 1.56 7.563 2.09 1.154 5.467.26 6.482-1.92.43-1.948-2.12-2.86-1.92-4.802-.426-2.7-1.142-6.7-4.44-7.082z" fill="#61676a" stroke-width=".311"/><path d="M271.13 432.954c-1.196.46-.768 2.005-.816 3-.03.662.7 1.513 1.32.91.764-1.083 1.197-3.1-.195-3.89-.1-.027-.205-.03-.308-.02z" fill="#6c635e" class="K"/></g><path d="M215.888 435.636c-5.914 1.64-9.635 6.966-14.024 10.86-3.128 3.323-7.06 6.497-8.458 10.973.01 3.586 5.065 4.053 7.15 1.867 6.764-4.886 11.966-11.638 17.086-18.117 1.096-1.804 2.18-5.572-1.755-5.583zm35.14 9.894c-2.54.3-1.46 3.56-3.054 4.864-7.743 13.445-18.938 24.934-24.707 39.45-1.12 2.846-1.36 7.73 2.487 8.43 4.993 1.12 9.13-3.27 10.396-7.715 3.512-8.284 7.573-16.266 13.67-22.967 4.898-5.906 11.117-10.832 15.37-17.24.344-3.156-3.76-2.887-5.8-3.565-2.755-.626-5.524-1.357-8.374-1.257zM398.5 255.142c-4.4 2.02-5.424 7.4-7.6 11.307-6.776 15.058-13.475 30.273-22.08 44.4-9.463 14.078-21.76 26.017-32.735 38.888-10.644 11.797-21.96 23.018-31.966 35.334-1.185 1.5-.5 4.453 1.838 3.84 9.504-5.957 17.028-14.498 25.24-22.03 15.878-15.543 30.184-32.612 44.252-49.812 8.35-10.73 15.45-22.593 20.456-35.222 1.297-4.105 3.47-8.684 1.846-13-1.43-1.515 1.796-1.875 2.252-3.316 1.08-2.357 1.272-5.173 1.202-7.752-.243-1.296-1.16-2.873-2.695-2.64z" class="B H I"/><path d="M222.706 431.2c-1.86.435-4.03 2.45-3.11 4.47 1.338 1.365 3.275-.183 4.11-1.36.952-1.088.766-3.14-1.002-3.11z" class="H I L"/><path d="M331.893 179.468c-2.937.713-5.87 4.366-3.723 7.24 2.424 3.36 5.887 5.774 8.882 8.59 1.594 1.173 3.377 2.878 5.462 2.687 1.843-.88.34-3.135-.258-4.36-2.433-4.83-4.175-10.598-8.8-13.86-.5-.215-1.024-.35-1.563-.293z" fill="#d45500" stroke="#d45500" class="G"/><path d="M322.236 186.626c-4.398 1.296-4.787 8.955-.014 9.95 3.617.883 7.738 1.578 11.276.3.796-3.182-2.974-4.654-4.63-6.73-1.913-1.563-3.966-3.653-6.633-3.5z" class="B C D"/><g class="J"><path d="M321.772 86.412c-17.002 10.2-33.305 24.52-38.525 44.384-5.79 16.98-2.66 35.784 5.83 51.238 1.66 3.248-2.94 5.63-3.316 8.844-1.48 3.637-4.513 10.907 1.713 11.442 6.323-.96 11.92-4.8 17.715-7.407 15.626-8.202 28.538-20.657 38.94-34.74 12.41-11.296 30.27-11.498 46.015-14.4 4.094-.275 11.708.158 11.773-5.39-6.832-9.843-12.357-20.446-19.152-30.345-9.225-12.578-23.773-20.425-39.203-22.093-7.16-1.06-14.582-2.21-21.8-1.536z" fill="#517a7b" stroke="#517a7b"/><path d="M459.58 469.457c-4.518-.363-9.49 5.302-5.113 8.982 17.57 12.715 35.694 25.138 55.273 34.352 4.086 1.68 7.728-3.833 4.007-6.605-12.45-9.854-20.98-24.395-35.043-32.418-5.92-3.11-12.445-4.678-19.124-4.31z" class="C D"/></g><path d="M458.26 501.547c-3.178 1.705-1.412 5.875-1.076 8.6 1.454 5.987 2.378 12.456 5.885 17.637 1.804 1.74 5.06-.176 4.235-2.625-.512-6.545-.706-13.447-3.503-19.47-1.216-1.896-2.947-4.517-5.54-4.132zm-10.24-.083c-3.218 1.018-1.662 4.92-1.12 7.158.72 3.93.877 8.742 4.767 11 1.477 1.52 4.914 1.36 4.712-1.327-.644-5.132-.444-11.202-4.3-15.13-1.117-.944-2.532-1.795-4.05-1.7z" class="B C D"/><g class="H I"><path d="M154.412 490.362c-8.318 4.923-8.47 16.713-15.642 23.05-8.264 12.404-19.518 24.922-20.175 40.405 13.35 24.106 42.18 34.674 67.765 37.64 4.092-3.875 9.282-4.68 14.592-3.98 10.28-5.198 11.638-19.682 17.323-28.972 6.992-18.187 13.95-37.954 13.298-57.143-8.404-5.3-15.723 6.825-23.354 8.9-8.36 3.422-18.808 11.72-27.553 6.963-3.124-8.017-13.007-9.104-20.727-10.502-3.843-3.63 1.374-16.46-5.527-16.36z" class="E"/><path d="M167.344 452.757c-2.892.69-4.134 4.178-5.375 6.633-3.04 8.366-3.475 17.51-2.97 26.338.4 2.293.294 4.905 1.548 6.91 3.306.417 7.097-3.122 10.004-.152 1.618 1.07 2.17 3.195 1.078 4.836-.73 2.677-2.838 5.207-2.39 8.07 3.17 1.558 6.797 3.31 10.39 2.764 4.344-1.578 7.984-6.522 13.017-5.182 1.767 1.337.27 4.06.953 5.887-.074 2.26-.26 6.16 2.957 6.177 8.06-1.843 14.67-7.342 21.266-11.91 2.442-1.612 3.097-4.59 2.64-7.324-.002-6.502 3.642-12.34 4.284-18.696-.92-3.705-5.582-3.87-8.508-5.1-8.65-2.35-17.3-5.155-24.606-10.498-7.32-4.56-15.376-9.146-24.288-8.75z" class="B"/><path d="M189.176 505.994c-1.723.706-2.135 2.784-3.204 4.143-1.655 2.942-3.603 6.024-3.767 9.48.39 1.44 2.387 1.204 3.08.138 2.63-2.525 4.615-5.932 5.113-9.555.025-1.33.37-2.98-.525-4.07-.204-.128-.46-.214-.698-.138z" class="L"/></g><path d="M489.17 520.312c-3.02 1.12-7.13 1.846-8.47 5.127-.114 5.14 2.558 9.787 3.993 14.606 1.1 4.103 6 6.984 9.84 4.574 3.174-2.076.9-6.174.703-9.098-1.1-4.932-1.87-10.184-4.282-14.642-.466-.466-1.128-.696-1.783-.567zm-18.53-11.592c-3.157 2.07-1.306 6.384-1.382 9.438.628 5.086.643 11.082 4.505 14.938 2.65 1.6 5.562-1.54 4.63-4.242-.415-6.488-.783-13.56-4.6-19.042-.795-.82-1.987-1.512-3.15-1.092z" class="B C D"/><g fill="#b3b3b3" stroke="#b3b3b3"><path d="M576.79 558.206c-5.437-.544-10.094 8.172-3.46 10.084 1.635.478 4.074-.493 4.377 1.935 2.942 4.112 7.892 6.754 12.663 8.032 2.803-.362 5.595-.77 8.325-1.33 3.446-1.784 2.103-6.713-1.016-8.1-6.098-4.758-13.07-9.637-20.9-10.63z" class="F"/><path d="M377.132 422.777c-2.166-1.112-8.826-6.187-9.807-7.474-.76-.995-.594-1.257.8-1.255 1.288.002 2.687.556 4.593 1.82 2.613 1.73 5.76 5.562 5.76 7.01 0 .473-.254.454-1.336-.102h0z" stroke-width=".929"/></g></g><path d="M335.03 84.75c-13.13.123-15.568 1.02-28.687 10.25-18.49 13-28.042 31.436-28.25 54.563-.095 10.588.315 12.697 4.22 21.47 4.005 8.998 4.204 10.067 2.656 14.344-.92 2.54-2.403 7.43-3.312 10.875-1.64 6.215-1.647 6.276 1.813 7.594 1.917.73 7.174 1.137 11.656.906 7.054-.364 8.128-.13 8.125 1.844-.004 3.493-9.246 11.99-17.125 15.72-3.88 1.836-8.21 4.594-9.625 6.156-5.016 5.543-9.836 6.7-41.344 9.844-4.287.428-7.582 1.403-7.687 2.28-.1.845-.266 2.986-.344 4.75-.078 1.778-1.305 3.804-2.75 4.563-9.746 5.112-19.595 11.777-22.562 15.22-4.844 5.618-11.692 17.802-23.656 42.188-8.532 17.4-20.686 37.004-24.656 39.75-2.586 1.79-9.296 13.21-9.312 15.875-.01 1.663-.904 6.85-2 11.5-2.285 9.696-1.6 12 5 16.656 2.302 1.624 7.432 5.983 11.375 9.656 5.168 4.813 11.932 8.95 24.25 14.844 9.4 4.498 19.665 8.92 22.813 9.813 6.14 1.743 11.185 5.094 7.656 5.094-1.036 0-6.918 5.04-13.094 11.188l-11.25 11.156-10.094-2.062c-9.758-2.016-10.23-2.023-14.312.5-4.096 2.532-7.28 7.416-7.28 11.156 0 1.006-.747 2.302-1.656 2.875s-3.634 8.084-6.062 16.688c-4.645 16.46-7.3 21.403-23.312 43.656-12.58 17.48-13.7 27.985-4.094 38.406 2.823 3.063 5.156 6.137 5.156 6.844 0 2.354 27.924 15.866 39.938 19.313 11.62 3.333 12.08 3.353 24.22 1.563 12.046-1.777 12.5-1.98 17.438-7.437 2.79-3.083 5.844-6.7 6.78-8.03 1.852-2.633 5.49-3.126 9.063-1.22 1.245.665 3.308 1.55 4.563 1.938 1.823.564 2.28 2.2 2.28 8.125 0 7.207 1.894 14.477 12.375 47.406 5.16 16.21 6.137 26.533 2.97 31.28-1.196 1.792-2.772 5.925-3.5 9.188s-3.1 10.127-5.28 15.25-3.97 9.925-3.97 10.656 1.656 3.24 3.656 5.594c5.753 6.774 6.794 10.66 7.656 28.22.445 9.067 1.237 17.663 1.75 19.094.644 1.795-.046 3.892-2.25 6.78-2.426 3.18-3 5.107-2.375 8 1.363 6.208 7.135 13.876 13.625 18.125l6.063 3.97 1.47 14.813c1.167 11.654 2.48 17.28 6.156 26.438 2.568 6.396 5.446 12.555 6.406 13.688s3.906 5.942 6.53 10.72c3.93 7.15 4.778 10.048 4.813 16.313.062 11.315 1.48 12.55 15.156 13.156 13.116.58 20.034-1.435 25.875-7.53 4.394-4.586 2.53-5.032-5.28-1.25-3 1.452-8.61 3.296-12.47 4.094-5.84 1.207-7.873 1.09-12-.656-4.927-2.084-4.955-2.123-4.562-8.844l.406-6.78 5.875-.53c7.694-.704 20.5-4.893 25.406-8.312 2.59-1.8 3.038-2.477 1.313-2-33.525 9.26-34.186 9.276-38.594.5-1.525-3.036-4.164-7.405-5.875-9.687s-3.125-5.064-3.125-6.187c0-2.125 3.737-2.527 19.22-2.062 3.754.113 8.025-.167 9.47-.625 4.676-1.484 2.758-2.974-3.594-2.812-3.406.086-10.954.01-16.78-.156l-10.594-.28-2.75-6.437c-4.744-11.027-4.32-11.812 6.563-11.812 13.52 0 25.408-2.393 34.344-6.906 4.302-2.172 9.568-4.33 11.72-4.78 5.102-1.072 3.856-3.358-1.72-3.156-5.063.183-3.92-1.6 2.125-3.344 2.635-.756 4.395-.702 4.906.125.44.713.394 6.66-.125 13.22-.857 10.825-1.3 12.23-4.656 15.375-2.04 1.905-5.78 4.454-8.312 5.656S315 831.38 315 832.063c0 1.88 5.385 1.476 9.594-.72 2.054-1.07 3.908-1.937 4.125-1.937s.33 3.973.25 8.813c-.08 4.85.88 12.58 2.156 17.25 1.273 4.66 2.636 13.766 3 20.22s1.19 12.288 1.844 12.97c1.767 1.844 1.444 6.71-.562 8.375-.967.803-4.9 2.057-8.72 2.78s-7.188 1.563-7.5 1.875c-1.575 1.575-14.692-5.37-20.062-10.625-6.217-6.08-10.22-6.866-10.22-2 0 1.313-.513 2.944-1.156 3.625s-1.463 3.6-1.812 6.47-1.624 7.836-2.844 11.063c-2.217 5.864-1.954 18.564.53 25.28.535 1.447.184 5.23-.78 8.438-.963 3.2-1.75 6.3-1.75 6.875 0 2.252 5.9 6.344 9.125 6.344 1.872 0 3.977.57 4.688 1.28 2.124 2.124 17.39 1.955 19.563-.22 1.646-1.646 1.557-2.277-.75-4.937-1.454-1.677-2.625-3.79-2.625-4.72s-2.102-3.302-4.656-5.25c-3.44-2.624-6.153-3.53-10.437-3.53-4.67 0-5.78-.445-5.78-2.312 0-1.272-.596-2.682-1.312-3.125-2.242-1.386-1.558-19.83.906-24.5 1.21-2.295 2.535-6.37 2.938-9.03l.72-4.812 5.813 3.875c3.183 2.143 8.512 4.868 11.875 6.063 5.52 1.96 6.515 3 10.188 10.438 3.033 6.15 4.063 10.032 4.063 15.28 0 3.87.377 7.96.813 9.094 1.08 2.814 6.836 2.596 11.438-.437 2.074-1.367 4.594-2.165 5.594-1.78s2.884-.258 4.188-1.437c1.324-1.2 3.333-1.803 4.53-1.344 2.943 1.13 2.67 2.71-.594 3.563-1.765.462-2.55 1.553-2.25 3.094.4 2.05 1.42 2.282 7.594 1.72 16.636-1.517 26.75.283 30.875 5.47.75.944 1.766 3.905 2.25 6.594.82 4.546.657 4.875-2.28 4.875-1.737 0-5.248.897-7.812 1.97-5.664 2.367-35.684 1.482-48.875-1.437-10.188-2.254-13.763-2.356-12.5-.312.63 1.02.235 1.264-1.187.72-3.5-1.34-3.988 1.653-.844 5 3.207 3.413 20.06 10.966 27.313 12.25 7.15 1.266 26.232.088 31.656-1.97 2.703-1.025 6.275-1.875 7.938-1.875 1.854 0 4.885-2.02 7.844-5.22 2.654-2.868 5.362-5.22 6-5.22.675 0 .652-1.712-.03-4.094-.646-2.253-.875-4.58-.5-5.187s-.294-3.177-1.5-5.72c-3.38-7.123-11.68-11.337-23.844-12.094-8.972-.558-10.386-1.03-14.187-4.687-2.323-2.235-4.21-4.97-4.22-6.094s-2.385-5.243-5.28-9.125c-6.035-8.09-7.472-12.342-5.344-15.75 1.658-2.654 2.048-16.75.47-16.75-.55 0-1-3.377-1.03-7.5s-1.096-11.56-2.375-16.53c-2.79-10.85-3.516-20.36-2.125-28.187.565-3.18 1.386-15.72 1.844-27.844.506-13.406 1.463-23.177 2.438-24.97.88-1.62 5.085-8.633 9.313-15.562 8.587-14.075 9.873-19.818 6.063-26.937-3.834-7.163-5.125-16.487-4.344-31.375.5-9.515.256-14.538-.75-15.75-2.89-3.48 5.65-30.875 9.625-30.875.787 0 3.144 1.8 5.25 4s6.923 6.375 10.688 9.28c6.462 4.988 8.502 9.007 5.53 10.844-2.55 1.576-1.257 5.915 3.28 10.938 3.005 3.326 4.05 5.296 2.97 5.656-.91.304-1.72 2.548-1.812 5-.156 4.184-2.488 11.928-6.562 21.78-.97 2.346-2.405 8.392-3.187 13.438-1.64 10.57.098 16.298 5.906 19.406 2.352 1.26 3.258 2.775 3.125 5.156-.103 1.85.002 3.94.22 4.656s-.36 3.068-1.28 5.22c-6.32 14.75-7.927 21.833-5.28 23.47 2.112 1.306 1.63 49.326-.594 58.75-1.028 4.36-1.91 11.41-1.97 15.656-.184 13.495-.858 16.9-4.72 23.47-3.438 5.85-3.77 7.422-3.625 17.875.14 10.16.503 11.84 3.25 14.78 6.066 6.494 9.645 7.488 27 7.344 8.846-.073 16.257-.327 16.47-.562s.83-2.41 1.344-4.812c.846-3.948.68-4.273-1.656-3.53-1.73.55-2.86.11-3.406-1.312-.71-1.853-3.088-2.086-18.594-1.687-16.797.432-17.85.338-18.812-2.125-2.996-7.676.226-23.304 5.75-27.875 1.418-1.173 1.9-2.823 1.375-4.875-.97-3.87-.604-3.855 7.313.156 5.047 2.558 8.43 3.25 15.625 3.25 9.068 0 9.156.056 9.156 3.5 0 4.54 3.437 8.224 7.688 8.25 1.86.01 6.917.948 11.22 2.063s9.024 2.12 10.5 2.25 4.595 1.84 6.938 3.813c4.167 3.507 7.97 4.682 7.97 2.47 0-.61 4.794-1.454 10.656-1.906 9.31-.718 11.373-.482 16.28 1.97 5.334 2.664 11.957 8.384 10.78 9.313-.302.238-5.034 1.724-10.5 3.313-8.655 2.515-12.752 2.872-31.78 2.72-14.27-.115-22.157.3-22.72 1.22-.608.983-2.32.973-5.844 0-5.085-1.404-7.91-.375-6.25 2.28 3.8 6.078 39.05 8.728 61.97 4.656 12.18-2.164 14.374-2.25 15.97-.656s1.82 1.45 1.75-1.156c-.045-1.66.294-5.382.72-8.25.643-4.336.163-6.06-2.844-10.312-5.403-7.64-13.225-11.112-25.156-11.156-5.382-.02-11.595.49-13.812 1.125-3.67 1.053-4.37.722-7.812-3.562-7.825-9.74-17.914-19.743-21.53-21.344-3.362-1.488-3.68-2.1-2.937-6.062.456-2.43 3.492-10.935 6.72-18.906s6.006-15.72 6.188-17.187 3.408-9.383 7.156-17.594l10.906-24.687c2.256-5.377 5.62-12.132 7.47-15s4.1-6.64 5.03-8.375 3.218-4.458 5.125-6.062 4.89-5.922 6.594-9.562c2.832-6.047 2.932-7.063 1.375-11.78-1.286-3.898-1.335-6.055-.25-8.812 2.808-7.138 3.11-12.846.97-17.97-1.933-4.625-1.92-5.23.22-8.375 4.7-6.92 2.243-32.058-3.937-40.187-.68-.896-.87-1.656-.406-1.656s-.173-1.89-1.406-4.22-2.424-5.35-2.656-6.72c-.503-2.972-5.806-12.42-13.97-24.844-3.275-4.985-5.97-9.752-5.97-10.594s-.833-2.223-1.844-3.062-2.097-4.55-2.437-8.28-.968-8.568-1.375-10.72-1.13-7.848-1.625-12.687-1.253-8.812-1.687-8.812-.812-3.784-.812-8.406v-8.406l5.875-3.125c6.553-3.487 7.048-6.013 2.563-13.344-2.83-4.625-15.91-43.304-15.28-45.187.234-.703 1.726-.193 3.344 1.125 2.034 1.657 3.026 3.988 3.22 7.594.255 4.75.816 5.494 6.03 8.125 3.148 1.588 6.374 4.205 7.188 5.844s2.922 3.186 4.688 3.438 4.855 1.656 6.875 3.094c2.184 1.555 4.952 2.356 6.813 2 2.58-.493 3.27.055 3.938 3.094 1.098 5 8.022 10.724 11.594 9.594 1.495-.473 3.773-.835 5.094-.812 2.17.037 2.324-.713 1.5-7.812l-.906-7.875 3.875 2c9.892 5.115 39.474 23.348 45.5 28.03 8.656 6.727 16.394 10.65 22.03 11.156 2.467.22 7.64 2.49 11.47 5.03s9.53 5.48 12.688 6.563 9.833 3.836 14.844 6.094c8.96 4.037 9.273 6.92 11.298 4.418 1.863-2.3 2.442-2.4 6.22-.812 3.897 1.638 7.896 1.36 8.125-.562.055-.46.296-1.84.53-3.062s-.317-2.85-1.25-3.625-1.413-2.505-1.062-3.844c.787-3.01-4.073-4.935-6.78-2.687-1.8 1.493-2.585-1.62-17.705-9.51l-12.375-6.28c-5.736-2.904-12.244-6.968-14.437-9.03s-5.204-4.154-6.687-4.625-4.227-2.177-6.094-3.78-8.326-5.47-14.375-8.594-13.717-7.918-17.03-10.656-8.184-6.31-10.844-7.937c-6.458-3.95-7.508-5.11-7.75-8.687-.27-3.98-2.225-6.21-8.906-10.125-3.082-1.806-6.21-4.9-7.094-7.03-1.624-3.922-12.23-14.702-18.562-18.844-2.713-1.775-3.594-3.367-3.594-6.625 0-2.367.638-4.546 1.438-4.812 1.065-.355 1.08-2.374.03-7.594-.788-3.916-1.692-12.69-2-19.5s-1.47-17.97-2.594-24.78S473.7 393.81 473.25 388c-.678-8.754-.45-10.684 1.188-11.312 2.615-1.003.775-9.517-3.5-16.312-1.672-2.658-3.767-7.163-4.687-10.03s-2.115-5.814-2.656-6.53-1.402-3.235-1.906-5.594c-4.314-20.168-20.775-58.57-30.75-71.75-2.693-3.558-5.098-7.507-5.344-8.78-.458-2.374-10.8-5.602-18.344-5.72-2.472-.038-6.175-2.418-12.094-7.78-4.687-4.248-10.24-8.1-12.344-8.562s-5.34-2.046-7.187-3.5c-2.62-2.06-3.765-2.305-5.187-1.125-1.434 1.2-2.108.99-3.156-.97-1.728-3.23.445-5.5 5.25-5.5 6.69 0 9.842-2.23 14-9.906 4.653-8.59 4.773-9.133 2.125-11.78-3.35-3.35-2.452-9.093 1.938-12.22 4.448-3.167 4.76-5.278 1.906-13.687-2.404-7.08-1.515-11.608 2.125-10.656 3.2.837 4.333-.96 1.875-3-1.672-1.388-1.683-2.06.03-5.375 1.075-2.08 2.71-3.78 3.625-3.78 2.617 0 10.41-8.732 9.625-10.78-.387-1-2.814-2.833-5.406-4.062s-4.358-2.788-3.937-3.47-.38-2.846-1.78-4.812-4.942-8.29-7.875-14.03c-11.333-22.18-29.137-32.467-55.75-32.22zm-11.562 4.313l9.78.656c28.224 1.877 42.23 10.375 53.813 32.656 3.307 6.362 7.566 13.2 9.47 15.22s3.252 3.84 3 4.03-6.926 1.024-14.812 1.844c-19.968 2.077-36.273 7.424-42.687 14-2.69 2.756-4.875 5.64-4.875 6.438 0 2.267-12.245 14.432-21.125 20.97-4.422 3.255-12.404 7.936-17.75 10.406-12.995 6.004-13.9 5.857-10.03-1.562 1.07-2.054 1.965-4.745 1.97-6s.9-2.28 2-2.28c1.664 0 1.552-.828-.656-5.156-8.06-15.8-10.067-26.794-7.375-40.47 3.973-20.182 12.893-33.713 29.156-44.22zM391 152.53c2.142-.044 2.168.575 1.938 2.188-.242 1.69-1.198 2.544-2.594 2.313-1.217-.202-2.837.774-3.594 2.188-1.344 2.51-.6 6.513 3.78 20.97.76 2.505 1.375 4.684 1.375 4.813 0 .642-9.21 3.145-10.687 2.906-5.06-.816-16.687 7.957-16.687 12.594 0 3.1 2.055 3.062 8.563-.125 7.45-3.65 9.688-3.946 9.688-1.344 0 1.054-1.535 2.05-3.5 2.28-4.924.583-5.206 3.272-.47 4.313 4.35.955 5.328 4.157 1.688 5.5-1.255.463-4.482 2.21-7.156 3.875s-5.025 2.99-5.22 2.97c-1.116-.126-12.72-9.476-12.72-10.25 0-.513-1.242-2.257-2.75-3.875-3.713-3.985-11.6-19.6-11.562-22.906.02-2.5 7.23-21.52 9.594-25.28.792-1.26 4.287-1.632 13-1.437 6.557.146 15.9-.297 20.78-.97 3.197-.44 5.246-.692 6.53-.72zm-25.78 4.72c-.277.023-.524.12-.72.313-1.07 1.055-1.102 1.752-.094 2.375 1.8 1.113 1.878 4.625.094 4.625-3.092 0-10.517 3.977-9.75 5.22.487.788 4.435 1.144 9.53.875 7.644-.403 8.772-.78 9.125-3.156.503-3.385-5.51-10.476-8.187-10.25zm-33.156 23.22c1.817-.04 3.78 2.36 6.344 7.438 2.185 4.328 3.97 8.184 3.97 8.563 0 1.666-2.407.18-8.47-5.25-5.44-4.873-6.256-6.2-5.062-8.094 1.09-1.732 2.128-2.633 3.22-2.656zm-9.437 7.688c1.444-.16 3.5 1.096 6.063 3.78l3.75 3.906h-5.5c-5.68 0-7.754-1.923-6.25-5.844.433-1.128 1.07-1.747 1.938-1.844zm-9.125 5.688c1.046-.008 2.085.737 3.906 2.47 4.475 4.255 9.68 5.454 14.625 3.406 3.895-1.613 4.063-1.474 15.438 9.656 6.33 6.194 12.16 11.25 12.97 11.25 2.31 0 1.737 3.83-1.125 7.47-3.667 4.66-3.432 8.156.563 8.156 4.12 0 5.097 1.768 4.063 7.28-.78 4.16-1.193 4.47-5.75 4.47-2.698 0-6.046.854-7.437 1.906-3.347 2.53-4.305 2.417-9.687-1.25-2.51-1.7-5.06-3.146-5.656-3.187-1.04-.072-11.164-7.86-15.187-11.687-1.064-1.012-3.006-4.237-4.312-7.156s-3.142-6.193-4.094-7.28c-1.005-1.15-1.976-6.42-2.312-12.562-.516-9.42-.314-10.75 1.938-12.156.804-.502 1.435-.777 2.063-.78zm-9 21.625l3.156 5.5c1.74 3.03 3.525 6.753 3.97 8.25.685 2.308 32.495 32.16 37.625 35.313 2.764 1.698 8.5 12.47 13.438 25.28 2.523 6.534 4.354 12.533 4.094 13.313s-2.174-.8-4.28-3.5c-4.426-5.673-14.973-12.844-24.25-16.5-3.54-1.396-8.736-3.73-11.53-5.156s-10.758-4.023-17.687-5.78-12.863-3.488-13.22-3.844c-.87-.87 4.106-7.778 11.656-16.125 6.013-6.647 7.49-9.437 5-9.437-.662 0-2.848 1.384-4.875 3.063s-7.725 5.295-12.656 8.03l-8.97 4.97-2.53-3.156c-4.888-6.06-10.156-14.746-10.156-16.72 0-2.658 8.646-10.362 14.344-12.78 2.51-1.065 7.334-3.894 10.72-6.312zm-5.53 14.406c-.766-.01-1.623.085-2.53.313-6.597 1.656-9.532 11.51-3.875 13 4.387 1.155 5.42.845 8.72-2.687 4.728-5.064 3.05-10.553-2.312-10.625zm-1.344 3.813c.513-.032.98.104 1.313.438.43.43.032 1.657-.875 2.75-2.115 2.548-3.937 2.553-3.937 0 0-1.576 1.96-3.092 3.5-3.187zm76.03 3.22c.962.018 2.363.513 4.875 1.5 5.56 2.184 6.685 3.507 4.22 5.03-2.446 1.512.178 3.316 4.406 3.03 2.303-.155 4.912.182 5.78.72 1.707 1.055 2.202 6.045.594 5.97-1.965-.093-15.794-3.594-16.906-4.28-.63-.39-1.93-.228-2.906.375-1.34.828.02 2.927 5.594 8.5 4.057 4.057 7.343 8.057 7.313 8.906s-3.146 7.67-6.937 15.156c-6.404 12.648-9.937 17.22-9.937 12.813 0-1.008-1.628-5.313-3.625-9.562-8.58-18.258-8.324-15.628-2.812-26.03 2.696-5.09 5.324-11.363 5.813-13.97s1.552-5.687 2.375-6.812c.68-.928 1.194-1.36 2.156-1.344zM263.75 238.28c4.21-.2 4.765 1.29 6.72 5.313l2.813 5.78-3.594 1.375c-1.97.765-6.807 1.914-10.75 2.53s-10.043 2.016-13.562 3.125-7.438 2.03-8.687 2.03c-2.648 0-5.125-6.106-5.125-12.594 0-3.846.437-4.38 3.594-4.562 1.972-.114 4.754-.093 6.188.063s5.838-.305 9.78-1.03c6.268-1.154 10.098-1.905 12.625-2.03zm91.97 14.344c3.494-.007 4.31 3.525.656 8.094-1.632 2.04-2.24 1.973-5.875-.562-3.87-2.7-3.7-3.873.906-6.25 1.692-.875 3.148-1.28 4.313-1.28zm-80.72.094c1.277.012 1.977.808 3.406 2.625 1.426 1.812 2.94 4.438 3.375 5.813.89 2.807 3.433 3.155 7.344 1.063 3.427-1.834 4.313-.822 2.22 2.53-1.45 2.322-1.27 3.123 1.375 5.938 1.678 1.786 4.885 3.594 7.125 4.03 17.65 3.44 35.124 9.964 48.03 17.906 6.707 4.127 15.344 14.23 15.344 17.938 0 2.197-10.852 15.885-21.844 27.563-3.134 3.33-7.035 7.865-8.656 10.063S321.662 360.652 311.75 371c-9.68 10.105-14.22 14.78-17.406 17.094-23.776-18.195-45.313-31.576-55.187-37.47l.688-.562c5.91-4.84 8.37-7.997 10.938-14.062 1.822-4.302 3.416-10.163 3.563-13.03s1.253-6.974 2.438-9.125c2.59-4.703 2.822-15.428.406-17.844-.954-.954-2.1-4.523-2.562-7.906s-1.455-7.198-2.187-8.47-1.894-3.903-2.594-5.875-1.86-3.594-2.594-3.594c-1.934 0-1.646 3.99.625 8.344 1.08 2.073 2.665 7.934 3.5 13.03s2.362 9.91 3.406 10.688c1.657 1.234 1.642 2.2-.22 7.813-1.173 3.532-3.49 7.903-5.125 9.688s-4.372 5.57-6.094 8.438c-4.338 7.223-11.282 14.356-18.656 19.125-6.975 4.51-5.9 4.816-16.062-4.47-3.16-2.888-4.807-3.52-7.5-2.844-4.176 1.048-4.256 2.032-.656 9.47l2.813 5.78-3.125 2.438c-1.723 1.335-5.938 3.714-9.344 5.28-5.958 2.74-7.892 5.505-4.625 6.594.857.286 3.775-.542 6.47-1.844 5.936-2.868 6.096-2.863 12.125-.344l4.813 2L207 373.75c-1.427 2.418-2.25 4.75-1.812 5.188s4.212.408 8.375-.062c6.942-.785 7.563-.628 7.563 1.72 0 1.407.403 2.934.875 3.406 1.44 1.44 4.344-1.862 4.344-4.937 0-1.594 1.103-3.92 2.47-5.156 2.356-2.132 2.778-2.116 7.844.47 5.893 3.006 6.12 3.487 3.344 7.156-1.053 1.392-1.92 4.04-1.937 5.875s-1.805 10.365-3.937 18.97-3.872 16.683-3.875 17.938c-.004 2.804-1.747 2.746-8.47-.22-2.868-1.265-7.904-2.966-11.187-3.78-6.75-1.675-32.078-12.668-39-16.937-2.51-1.548-9.093-6.5-14.625-11-9.108-7.393-10.035-8.587-10-12.72.096-11.336 2.923-18.84 11.656-30.72l11.313-15.594c1.5-2.168 9.56-17.405 17.906-33.875s16.67-31.525 18.53-33.47c3.254-3.397 17.86-11.5 20.75-11.5.77 0 2.067 1.477 2.875 3.25 2.04 4.474 6.43 5.172 16.094 2.594 4.553-1.215 10.632-2.687 13.5-3.28s7.693-1.983 10.72-3.062c2.36-.842 3.694-1.29 4.688-1.28zm131.813 2.563c3.237.068 13.923 1.832 14.844 2.563.225.18.016 2.417-.47 5-.642 3.424-1.55 4.72-3.344 4.72-1.354 0-2.47.564-2.47 1.28 0 1.75 8.234 1.672 10-.094 1.66-1.66 4.3 2.313 12.063 18.03 4.763 9.645 12.925 32.54 18.938 53.125 1.257 4.302 4.578 12.242 7.375 17.656 4.4 8.518 4.978 10.638 4.313 15.656-.76 5.743.08 15.898 3.844 46.188 1.07 8.604 2.245 20.193 2.594 25.75.723 11.513.11 12.018-8.687 7.375-6.908-3.646-13.777-4.034-24.125-1.406l-8.875 2.25-2.156-7.312c-1.185-4.02-2.867-14.3-3.72-22.844-1.023-10.258-2.12-15.874-3.28-16.562-.966-.573-1.78-2.8-1.78-4.97v-3.937l9.47.906c5.198.495 9.664 1.104 9.938 1.344.843.74 5.375-2.107 5.375-3.375 0-1.593-11.32-9.41-16.28-11.25l-3.937-1.47 3.406-1.594c3.638-1.707 7.99-.2 15.688 5.5 2.792 2.064 3.924 2.274 6.188 1.063 3.74-2 2.89-3.327-11.875-18.375-6.7-6.828-13.175-14.53-14.406-17.125s-3.05-5.018-4.062-5.406-2.238-2.5-2.72-4.687c-.722-3.287-.265-4.51 2.594-6.97 2.77-2.382 3.27-3.683 2.563-6.5-.486-1.935-2.012-3.85-3.375-4.28s-2.535-1.33-2.625-2a120.96 120.96 0 0 1-.312-2.812c-.213-2.065-6.908-5.81-8.156-4.562-.53.53-.286 1.683.563 2.53 2.802 2.802 1.615 3.843-3.375 3-2.707-.457-10.324-.875-16.937-.937s-12.03-.377-12.03-.687 1.9-3.3 4.22-6.656 5.102-7.656 6.188-9.562c5.33-9.363 10.225-19.008 11.094-21.937 2.765-9.32 4.72-11.753 9.625-11.875l4.72-.094-4.22-1.25c-3.955-1.142-4.25-1.6-4.25-6.97 0-3.164.43-6.01.97-6.344.108-.067.444-.103.906-.094zm-20.437.53c1.445 0 2.994.893 3.406 1.97.438 1.14-.007 1.938-1.03 1.938-.965 0-2.482-.862-3.375-1.937-1.35-1.628-1.188-1.97 1-1.97zm12.563.594c.652-.093.78.972.78 3.78 0 3.514-.736 5.04-2.937 6.22-1.806.966-2.283 1.79-1.28 2.125 4.662 1.554-1.782 18.73-14.47 38.563-3.453 5.397-18.915 24.38-23 28.25-.38.358-4.02 4.762-8.094 9.78s-15.13 16.444-24.594 25.406c-16.485 15.614-22.736 20.293-19.687 14.78.73-1.32 6.384-7.672 12.563-14.125s15.684-16.718 21.094-22.812l16.78-18.906c11.922-13.386 15.948-19.47 24.375-36.78l9.75-20.625 3.5-8.53c1.063-2.567 2.852-5.417 3.97-6.344.555-.46.953-.74 1.25-.78zm-75.03 66.094c-9.223.2-24.96 2.117-40.187 5.22L267.094 331c-2.344.424-4.25 1.575-4.25 2.563 0 2.312 4.27 2.22 12.313-.22 10.86-3.295 37.374-7.73 47-7.875 5.02-.076 9.423-.692 9.78-1.344.68-1.234-2.498-1.74-8.03-1.625zm71.97 1.313c5.104-.063 8.332.417 11.656 1.594 3.226 1.142 6.902 2.083 8.156 2.094 1.36.01 2.28 1.006 2.28 2.47 0 1.777-2.078 3.29-7.5 5.438-4.123 1.632-8.4 3.758-9.53 4.72-2.653 2.25-3.43 2.113-9.687-1.625-2.868-1.713-7.053-3.47-9.312-3.906-3.118-.602-4.265-1.62-4.78-4.25-.374-1.905-.246-3.954.313-4.53s6.248-1.385 12.625-1.78a115.1 115.1 0 0 1 5.781-.219zm-59.344 2.594c-.874-.082-2.974.753-8.062 2.688-7.468 2.84-18.447 9.378-20.25 12.03-1.127 1.658-8.512 1.093-17.937-1.344-10.278-2.657-22.62-2.444-25.094.438-4.08 4.75-4.012 5.55.344 4.03 4.142-1.444 18.858-.817 31.875 1.375 11.96 2.014 13.13 1.8 19.78-3.97 3.45-2.986 9.36-6.804 13.125-8.47 3.905-1.728 6.844-3.875 6.844-5 0-1.084.055-1.718-.625-1.78zm32.938 5.156c.2-.02.3.02.375.156 1.88 3.476 2.783 42.612 1.25 54.125l-2.156 16.97c-.563 4.783-1.072 5.53-3.75 5.53-1.706 0-3.463.596-3.906 1.313-1.133 1.833-2.757 1.618-5.03-.656-1.075-1.075-2.56-1.97-3.28-1.97s-1.654-1.114-2.094-2.5c-1.545-4.867-25.522-18.937-30.25-17.75-6.407 1.608-3.778-2.578 10.03-15.906 7.99-7.7 19.872-20.042 26.406-27.406 6.872-7.746 11.073-11.758 12.406-11.906zm9.22 6.375c.4 0 5.247 2.122 10.78 4.72l10.063 4.72 3.875-2.75c2.137-1.522 4.57-2.78 5.406-2.78 8.065 0 9.924 29.45 2.5 39.563-1.49 2.028-2.403 3.94-2.062 4.28s-.194 3.323-1.187 6.625-1.828 8.41-1.844 11.344c-.018 3.276-1.028 6.592-2.594 8.594-1.402 1.792-2.547 4.872-2.562 6.844-.026 3.278-.468 3.58-4.937 3.53-5.737-.06-11.077-2.632-16.844-8.094-3.38-3.2-4.03-4.695-3.53-8 .338-2.234.966-18.567 1.406-36.312s1.133-32.28 1.53-32.28zM361.28 348.5c-.984.11-2.132.793-3.5 2.03-2.965 2.683-3.05 6.685-.22 9.813 2.525 2.79 2.483 2.78 5.75 1.03 2.776-1.486 3.314-6.436 1.156-10.47-.93-1.738-1.923-2.548-3.187-2.406zm-126.22 5.75c8.333 4.91 29.456 17.777 53.75 36.156-.48.082-.95.177-1.5.25-6.117.812-6.935.526-16.72-5.75-5.653-3.626-14.23-8.245-19.094-10.28-20.582-8.613-19.88-8.136-19.562-13.5.167-2.83.743-4.458 3.125-6.875zm126.375 25.53c-.887.03-2.103.44-3.906 1.125-4.748 1.805-6.37 5.494-3.937 8.97 4.46 6.366 12.44 1.14 10.438-6.844-.58-2.3-1.116-3.3-2.594-3.25zm-113.78 1.438c1.067-.115 2.363.182 4.47.813 5.85 1.753 23.75 12.94 23.75 14.844 0 .73-2.663 9.202-5.906 18.813s-6.025 19.803-6.187 22.656c-.275 4.85-.532 5.165-4.187 5.094-2.15-.042-5.693-.858-7.844-1.844s-6.707-2.8-10.125-4.03c-4.637-1.658-6.417-3.05-7.03-5.5-1.804-7.188 6.07-45.58 10.094-49.22 1.077-.975 1.9-1.5 2.97-1.625zm169.594 6.688c3.427-.064 10.457 1.142 11.75 2.344.736.685-.427 1.156-2.844 1.156-2.236 0-4.87.282-5.844.656-1.812.695-4.937-1.604-4.937-3.625 0-.344.733-.5 1.875-.53zm-97.53 3c6.497-.18 8.467 1.216 13.906 4.938 9.318 6.377 10.604 8.594 4.938 8.594-2.21 0-4.03.487-4.03 1.094s2.348 5.846 5.188 11.656c4.53 9.268 5.237 12.053 5.906 22.688.42 6.668 1.036 13.747 1.344 15.72.44 2.822.026 3.594-1.875 3.594-3.59 0-5.28-2.807-6.594-10.875-.65-3.985-1.803-8.424-2.562-9.844s-1.406-4.14-1.406-6.03c0-5.38-4.126-3.552-6.5 2.875-2.653 7.18-3.165 7.555-7.75 5.656-3.267-1.353-4.224-1.307-5.875.344-1.394 1.395-3.598 1.806-7.53 1.344-5.938-.698-8.84-3.194-15.72-13.437l-3.656-5.406-14.5 1.813.938-4.406c.51-2.422 1.966-7.62 3.25-11.562s2.728-9.076 3.22-11.406c.815-3.87 1.332-4.25 5.813-4.25 2.697 0 9.517-.564 15.188-1.25 8.884-1.074 14.414-1.735 18.313-1.844zm23.594 17.5c.674-.003 1.622.053 2.844.156 3.755.316 7.274 2.322 14.594 8.22 5.307 4.275 12.87 9.51 16.813 11.656s9.164 5.26 11.594 6.906 5.402 2.97 6.625 2.97 3.353 1.256 4.72 2.78c2.707 3.023 25.495 21.86 29 23.97 1.192.717 5.965 3.96 10.625 7.22 11.993 8.386 17.628 11.656 19.938 11.656 1.102 0 4.376 1.92 7.28 4.25s9.446 7.165 14.563 10.75 10.628 8.04 12.22 9.906c4.84 5.68 8.77 7.546 15.344 7.28 4.97-.2 6.797.398 9.78 3.156 3.607 3.334 11.903 8.907 24.28 16.313l8.47 5.094 8.406 5c3.406 2.03 6.188 4.268 6.188 4.97s-1.514 3.856-3.375 7.03c-3.615 6.168-5.67 7.065-8.5 3.656-.974-1.173-4.153-3.267-7.03-4.625-10.4-4.907-19.045-9.847-21.97-12.594-1.64-1.54-3.34-2.812-3.78-2.812-2.2 0-24.244-15.784-26.187-18.75-1.232-1.88-3.032-3.406-4.03-3.406s-2.067-.7-2.344-1.53-2.305-1.438-4.53-1.375c-3.312.094-4.34-.605-5.656-3.78-1.5-3.644-7.028-7.656-10.5-7.656-.853 0-2.254-.965-3.125-2.156-1.165-1.594-4.13-2.312-11.22-2.656-12.278-.597-23.91-6.104-41-19.406-6.792-5.287-30.722-20.14-39.72-24.656-3.928-1.972-9.936-5.575-13.344-8s-6.712-4.406-7.344-4.406c-1.342 0-2.68-4.473-2.75-9.125-.027-1.792-1.55-6.76-3.375-11.062s-3.837-9.478-4.47-11.5c-.85-2.72-1.053-3.43.97-3.437zm67.406 1.78c.437.001 1.038.522 2.188 1.563 1.345 1.218 2.47 2.784 2.47 3.5s1.394 4.315 3.094 7.97c1.744 3.75 3.47 10.6 3.97 15.75.487 5.02 1.192 10.45 1.594 12.063 1.01 4.057-.74 3.546-5.937-1.72-4-4.04-4.473-5.362-4.937-13.28-.284-4.835-1.374-11.78-2.437-15.437s-1.56-7.63-1.094-8.844c.398-1.038.657-1.563 1.094-1.562zm-42.78 3.594c2.65.002 7.412 3.3 9.594 6.75 2.6 4.122.676 3.667-5.97-1.406-4.693-3.584-5.772-4.995-4.125-5.312.156-.03.323-.03.5-.03zm-145.25 18.188c.744-.11 1.098.363.813 1.22-.314.94-1.34 1.968-2.28 2.28-.978.326-1.482-.147-1.156-1.125.314-.94 1.34-1.968 2.28-2.28.122-.04.237-.078.344-.094zm48.47 1.375c.09-.033.204.017.313.125.433.433.47 1.56.094 2.5-.416 1.04-.72.737-.78-.78-.042-1.03.108-1.746.375-1.844zM215.844 437c.92-.1 1.357.45 1.344 1.656-.01.896-2.975 4.988-6.594 9.094-8.882 10.076-13.448 13.303-15.437 10.906-1.193-1.437.458-3.812 8.188-11.72 6.213-6.356 10.474-9.715 12.5-9.937zm61.844.125l5.938.72c8.34.987 9.592 1.537 8.72 3.813-.452 1.177-.105 1.873.844 1.72.885-.144 3.35.456 5.5 1.344 3.474 1.433 21.925 1.363 31.25-.125 2.097-.335 2.807.698 3.906 5.656.74 3.337 2.5 7.328 3.906 8.875 2.18 2.398 2.28 2.99.656 4.03-4.278 2.742-61.002-.42-70.03-3.906-4.722-1.823-5.146-2.886-2.28-5.75 1.075-1.075 1.97-2.532 1.97-3.25s1.262-1.5 2.813-1.72c1.964-.3 3.425-2.087 4.813-5.906zm-49.47 1.188c2.95 0 3.338 3.542.656 5.97-1.386 1.254-2.53 3.363-2.53 4.688s-2.32 4.5-5.156 7.063-5.53 5.778-5.97 7.156-1.762 2.44-2.97 2.344c-8.67-.702-10.106-2.733-5.125-7.22 1.613-1.453 6.62-6.542 11.125-11.312s8.993-8.687 9.97-8.687zm16.875 6c.778-.014 1.838.346 3.25 1.063 1.88.954 6.22 2.13 9.625 2.625s6.167 1.32 6.156 1.813-3.304 4.12-7.344 8.063c-10.295 10.05-16.737 18.98-20 27.72-1.54 4.123-3.675 8.363-4.75 9.438s-3.384 1.97-5.125 1.97c-6.607 0-2.947-9.607 11.22-29.344 11.386-15.864 13.33-18.982 12.375-19.937-.448-.448-1.952-.12-3.344.75-3.376 2.108-3.875 2.002-3.875-.812 0-2.26.516-3.32 1.813-3.344zM353 450.656c1.052.158 2.406 5.96 2.406 10.656 0 3.004-1.774 4.167-3.094 2.03-1.016-1.644-.638-11.94.47-12.625.067-.04.15-.073.22-.062zm99.188 2.188c1.227-.036 2.513-.002 3.875.094 8 .563 11.443 2.684 14.563 8.938l1.78 3.594-7.97.906c-4.396.498-9.988 1.722-12.406 2.72s-4.84 1.813-5.375 1.813c-1.923 0-14.324-10.67-13.656-11.75.375-.607 4.016-2.36 8.125-3.906 4.1-1.543 7.382-2.3 11.063-2.406zm-283.125 1.28c1.2.04 2.85.343 5.344.844 4.87.978 10.092 3.45 16.47 7.844 5.136 3.538 12.144 7.14 15.563 8 12.1 3.04 16.276 4.55 16.844 6.03.316.824-.688 4.655-2.22 8.53-1.687 4.273-2.52 8.62-2.125 11.063.605 3.753.06 4.447-8.03 9.906-4.776 3.222-10.346 6.276-12.375 6.78-3.604.898-3.664.8-3.312-4.062.198-2.737-.083-5.686-.625-6.562-1.63-2.64-6.9-1.823-11.156 1.75-3.628 3.053-4.42 3.232-8.53 1.875l-4.53-1.5 2.094-5.187c2.017-5.04 1.992-5.298-.875-7.97-2.492-2.32-3.545-2.538-6.625-1.375l-3.656 1.406-.875-6.937c-1.073-8.59 1.498-24.435 4.563-28.22 1.334-1.647 2.064-2.286 4.063-2.22zm62.906 1.813l-2.75 4.625c-1.52 2.546-3.245 5.815-3.812 7.28-1.07 2.767-4.28 2.745-4.28-.03 0-.87 2.455-3.916 5.438-6.75l5.406-5.125zm130.688.03c.285-.06.69.154 1.22.594 1.075.893 1.97 2.994 1.97 4.656s.584 3.393 1.313 3.844.975 1.364.563 2.03-1.9 1.22-3.28 1.22c-2.175 0-2.53-.947-2.53-6.687 0-3.98.122-5.526.75-5.656zm-101.22 5.5c.224-.024.423.013.563.125.826.663 6.766 2.56 13.22 4.22 10.787 2.773 14.576 3.008 46.938 3.094 31.17.083 35.584.345 38.438 2.344 1.772 1.24 4.24 2.28 5.5 2.28 1.326 0 2.55 1.24 2.906 2.938.708 3.373 3.176 32.56 4.22 49.844.415 6.878 1.995 15.77 3.813 21.5 1.705 5.377 3.116 10.526 3.125 11.438.034 3.344-6.825 12.03-9.5 12.03-1.46 0-3.587.79-4.72 1.75s-9.977 2.763-19.656 4c-31.615 4.042-64.392 3.63-87.156-1.094l-20.406-4.22c-11.887-2.465-17.594-4.9-17.594-7.5 0-.988 1.526-6.108 3.375-11.375 5.85-16.658 14.875-50.697 14.875-56.062 0-2.036.478-3.72 1.063-3.72 1.946 0 7.028-10.538 6.344-13.156-.837-3.202 11.293-18.07 14.656-18.437zm120.094 5.313l12.313 7.313-3.906.688c-2.15.39-3.936 1.3-3.97 2s-.485 3.548-1.03 6.28c-1.1 5.5.982 13.92 3.47 13.97 17.07.333 23.195.882 24.563 2.25 2.23 2.23 8.253 2.025 10.22-.344.893-1.075 2.073-1.937 2.625-1.937.97 0 8.218 17.73 14.375 35.188 1.644 4.66 4.395 11.32 6.125 14.813 2.052 4.143 2.708 6.792 1.875 7.625-1.74 1.74-25.818 12.053-39.125 16.75-5.972 2.108-11.536 3.818-12.375 3.813-2.657-.015-6.903-8.05-11.03-20.844-3.17-9.82-4.315-16.432-5.47-31.937-1.28-17.196-3.273-32.496-5.97-45.78-.71-3.506-.262-4.437 3.25-6.937zm81.125 5.563c3.814-.105 7.848.532 9.5 1.78 1.392 1.053 3.425 1.946 4.53 1.97 3.214.066 17.078 12.505 21.063 18.906 2.004 3.22 5.935 7.317 8.75 9.094s5.51 3.863 6 4.656.69 1.64.438 1.875c-1.042.98-26.832-12.913-31.094-16.75-1.792-1.614-6.67-4.946-10.844-7.406s-9.69-6.206-12.25-8.312c-4.176-3.438-4.4-3.913-2.187-4.78 1.588-.623 3.805-.968 6.094-1.03zm-138.72 2.75c-3.276-.001-6.905.1-10.906.25-28.917 1.08-47.808 2.992-49.062 4.97-2.214 3.5-1.214 10.91 1.875 13.813 5.643 5.3 35.122 14.844 38.813 12.563.648-.4 2.184-.153 3.406.53 1.356.76 3.422.78 5.313.063 1.704-.648 9.23-2.287 16.688-3.625 16.96-3.043 19.67-4.69 20.875-12.72 1.777-11.85-4.068-15.836-27-15.844zm73.47 3.03c2.134.02 5.715 2.047 12.844 7.188 6.038 4.354 11.165 8.414 11.375 9s-.52 1.388-1.625 1.813-2.03.295-2.03-.312c0-1.94-7.77-4.41-14.75-4.687-13.348-.53-12.625-.252-12.625-5.062 0-4.593 1.41-6.45 5.97-7.844.25-.077.54-.096.844-.094zm-102.062 2.438l11.813.03c31.907.235 36.75 1.163 37.594 7.094.74 5.208-.87 8.972-4.22 9.813-1.742.437-8.82 1.378-15.72 2.094s-14.122 2.104-16.062 3.094c-3.93 2.004-8.85.977-19.844-4.125-3.226-1.497-9.386-4.168-13.687-5.937-6.827-2.808-7.874-3.702-8.22-7.062-.373-3.644-.1-3.87 5.22-4.5 2.314-.274 11.753-.476 23.125-.5zm-141.97 9.28c1.378-.04 3.864 11.434 3.063 14.5-.373 1.426.4 3.817 1.72 5.406 2.106 2.536 2.726 2.7 5.625 1.188 2.695-1.397 4.064-1.387 7.97.125 3.75 1.453 5.04 2.87 6.25 6.906 1.268 4.234 2.08 5.094 4.938 5.094 1.886 0 4.52-1 5.844-2.187s5.72-2.605 9.78-3.156c4.326-.587 8.785-2.147 10.75-3.75 1.844-1.504 5.82-4.335 8.844-6.28s5.51-4.127 5.53-4.844c.03-.973 7.875-2.093 7.875-1.125 0 2.38-6.18 28.856-8.625 36.97-7.343 24.374-18.52 46.967-23.25 46.938-.75-.005-3.1-1.167-5.22-2.562-3.13-2.063-3.47-2.684-1.75-3.344 2.936-1.127 8.467-13.25 9.53-20.937.83-5.988 4.42-16.516 9.75-28.562 2.818-6.368 4.3-11.062 3.5-11.062-2.346 0-17.844 31.343-17.844 36.094 0 3.51-5.582 16.292-8.78 20.094-2.953 3.5-3.995 3.937-8.094 3.28-10.034-1.604-30.036-10.982-37.812-17.72-7.873-6.82-10.47-7.942-10.47-4.562 0 2.54 9.475 12.85 14.875 16.188 5.472 3.382 25.74 10.5 29.906 10.5 1.808 0 3.668.605 4.125 1.344.474.766 2.666.992 5.125.53 2.68-.503 4.67-.25 5.25.688.512.83.72 1.725.47 1.97-1.623 1.576-13.16 1.628-18.687.094-13.88-3.853-36.054-14.147-39.906-18.53-1.156-1.316-4.216-4.308-6.78-6.656s-5.018-5.454-5.47-6.875c-1.27-4 1.82-16.526 5.063-20.5 3.042-3.728 12.578-17.258 19.844-28.156 2.33-3.496 4.625-8.632 5.094-11.406s1.305-5.324 1.844-5.656a.23.23 0 0 1 .125-.031zm294.78 12.97c1.385-.21 4.96 2.774 5.063 4.375.03.487.536 3.36 1.125 6.406s.723 5.522.28 5.5c-2.593-.128-5.375-3.103-5.375-5.78 0-1.7-.56-4.592-1.25-6.406-.714-1.877-.748-3.627-.094-4.03.07-.044.158-.048.25-.062zm10.563.03c.63-.145 1.614.507 2.938 1.97s2.547 4.856 2.75 7.53.78 7.06 1.25 9.75c.54 3.088.334 4.875-.53 4.875-1.894 0-2.167-.613-5.406-12.22-2.09-7.486-2.385-11.588-1-11.906zm-269.375 3.72c.34.018.462.892.47 2.813.014 4.038-5.176 11.95-6.78 10.344-.822-.822 2.087-7.402 5.438-12.312.393-.576.67-.854.875-.844zm281.875 3.47c2.393 0 4.458 5.407 5.344 13.97.64 6.187.466 8.188-.78 8.188-2.572 0-4.012-3.817-5.03-13.375-.64-6.017-.495-8.78.47-8.78zm18.406 11.78c.27-.022.484-.001.563.094.704.85 4.688 17.864 4.688 20 0 2.456-5.606 2.733-7.53.375-1.207-1.48-5.5-14.506-5.5-16.687 0-.9 5.887-3.626 7.78-3.78zm87.438 38.25c2.624-.107 6.22 1.597 13.156 5.813 9.403 5.714 11.437 9.313 5.25 9.313-2.144 0-4.105.512-4.344 1.125s-3.24-.616-6.687-2.75c-4.257-2.634-6.037-4.525-5.53-5.844.583-1.52.023-1.743-2.562-1.094-4.34 1.09-6.085-2.697-2.47-5.344 1.013-.74 1.995-1.17 3.188-1.22zm-141.53 9.406c.47.018.815.128 1 .313.663.663 1.725 6.985 2.344 14.063s2.04 16.352 3.156 20.625 2.03 9.05 2.03 10.594 1.14 4.262 2.53 6.03 3.557 5.802 4.813 8.97 4.825 9.975 7.938 15.125 8.862 16.7 12.78 25.656c5.77 13.182 7.125 17.622 7.125 23.375 0 9.25-2.746 16.753-9.156 25.063-2.853 3.698-5.187 7.375-5.187 8.156 0 1.87 4.29 3.165 7 2.125 2.58-1 2.778 1.69.688 9.22-1.2 4.317-1.075 5.87.813 9.375 2.544 4.724 1.83 8.624-1.344 7.406-1.29-.495-1.894-.146-1.656.906.22.978-1.424 2.053-3.906 2.594-2.344.51-6.475 2.464-9.187 4.344s-5.535 3.438-6.28 3.438-2.373 1.09-3.594 2.438c-2.045 2.26-2.038 2.618-.094 4.563 1.16 1.16 2.944 2.125 3.97 2.125a1.88 1.88 0 0 1 1.875 1.875c0 1.18-1.862 2.192-4.906 2.688-2.69.437-9.386 1.726-14.875 2.844-9.84 2.004-10.068 1.99-16.937-1.062a274.33 274.33 0 0 1-13.437-6.5c-9.7-5.1-12.156-10.56-3.375-7.5 8.297 2.892 32.4-1.603 31.03-5.78-.325-.986-4.87-1.86-12.156-2.375-11.084-.783-24.022-2.738-29.375-4.437-4.043-1.283-5.34-5.297-4.344-13.406 1.206-9.824 2.44-12.82 7.656-18.594 2.406-2.663 4.77-6.08 5.25-7.594 1.11-3.5 3.527-3.492 6.688 0 1.364 1.507 4.062 3.56 6 4.563 3.96 2.047 12.26 2.46 13.375.656.4-.65-2.35-3.73-6.094-6.844-7.61-6.33-27.094-25.48-27.094-26.625 0-.406 2.484 1.304 5.53 3.78 19.726 16.04 31.526 22.17 34.22 17.813 1.258-2.036-10.696-16.677-16.72-20.47-2.98-1.876-10.32-7.144-16.28-11.687s-11.698-8.25-12.78-8.25c-2.474 0-20.03-17.803-20.03-20.312 0-1.02.876-1.844 1.938-1.844s2.26-1.622 2.688-3.594 1.296-4.754 1.906-6.187c4.28-10.06 6.282-18.5 6.938-29 .686-10.982.54-12.15-1.75-13.375-2.132-1.14-2.84-.71-4.656 2.906-1.176 2.342-5.345 7.56-9.28 11.594s-7.83 8.576-8.656 10.063c-2.323 4.172-23.196 32.882-27.25 37.5-4.024 4.583-4.373 6.072-1.937 8.094 2.343 1.944 11.293-4.222 21.594-14.906 4.535-4.704 8.515-8.298 8.844-7.97 1.588 1.588-7.96 23.533-17.125 39.406-2.484 4.302-4.522 8.73-4.53 9.813s-1.067 2.62-2.375 3.438-4.977 5.792-8.125 11.063-7.412 11.754-9.5 14.406c-2.16 2.746-3.465 5.683-3.03 6.813.946 2.466 6.33 3.914 10.594 2.844 5.008-1.257 13.19-10.345 18.688-20.75l2.625-4.97-.094 8.875c-.082 7.005.65 10.694 3.53 17.375 4.96 11.494 5.53 17.854 2.188 24.406-2.335 4.578-3.337 5.3-8.25 5.97-8.636 1.158-12.644 8.188-8.78 15.406 1.928 3.602-.685 6.84-4.062 5.03-1.312-.702-4.56-1.28-7.25-1.28H314.5l3.594-3.75c3.39-3.537 3.436-3.845 1.313-5.97-1.915-1.915-3.784-2.122-12.78-1.375-13.59 1.128-24.4 3.878-26.5 6.75-3.865 5.286.794 6.9 10.875 3.72 7.527-2.368 10.178-1.804 9 1.906-.43 1.353.216 3.3 1.5 4.594 1.906 1.906 3.77 2.1 12.438 1.344 5.604-.49 10.188-.618 10.188-.28s-2.173 1.88-4.812 3.438c-6.237 3.68-20.8 4.952-24.344 2.125-1.744-1.39-4.216-1.697-8.78-1.156-5.428.643-6.944.282-10.594-2.5-2.347-1.79-7.368-4.83-11.156-6.75-8.64-4.376-12.03-7.712-12.03-11.875 0-1.792-.564-3.25-1.28-3.25s-1.312-.604-1.312-1.344c0-2.627 4.128-2.87 8.53-.5 3.51 1.89 4.784 2.06 6.03.813.873-.873 2.925-1.594 4.53-1.594 7.434 0 3.55-6.31-8.187-13.344l-6.687-4.03-.78-11.187c-1.395-20.35-2.868-27.394-6.562-31.25-3.357-3.504-4.43-8.897-2.25-11.28.623-.68 2.17-4.03 3.438-7.437 2.084-5.6 2.448-5.972 4.03-3.906 3.14 4.096 4.385-.697 4.406-17.062.02-14.818-.214-16.114-6-33.875l-9.937-29.25c-3.006-8.226-3.793-12.112-3.28-16.656.368-3.266.905-6.186 1.188-6.47s2.84-.05 5.688.53c24.584 5.014 64.206 8.218 81.438 6.563 22.376-2.15 43.635-5.228 44.906-6.5.687-.687 2.357-1.25 3.72-1.25s4.215-1.848 6.313-4.094c3.764-4.03 3.843-4.047 6.53-1.625 1.498 1.35 3.227 3.793 3.844 5.406.892 2.33 2.12 2.922 6.03 2.906 5.065-.02 19.123-4.057 31.53-9.03 3.236-1.297 5.837-1.96 7.25-1.906zM390.438 776.03l11.5 5.875c14.133 7.248 23.518 9.046 34.063 6.5 4.068-.982 10.205-2.116 13.656-2.53 7.172-.864 7.14-1.158 1.5 11.594-2.636 5.96-3.806 7.18-8.656 8.938-6.025 2.184-26.51 3.43-33.344 2.03-8.286-1.695-20.698-12.34-21.906-18.78-.468-2.493.033-6.068 1.22-8.906zm-119.312 18.875c.633-.058 1.473.244 2.594.844 1.5.797 5.834 1.344 9.656 1.22s9.707.588 13.094 1.594c3.624 1.076 8.982 1.574 13 1.188 3.754-.36 6.813-.27 6.813.22 0 1.886-11.44 5.8-19.53 6.656l-9.125 1.094c-.358.106-4.63-.007-9.47-.22l-8.78-.375v-5.594c0-4.594.357-6.498 1.75-6.625zm115.03 3.125c1.005-.053 2.81 1.534 5.875 4.438 8.223 7.792 19.043 10.57 37.688 9.688l14.22-.687-2.03 4.75-3.906 9c-1.02 2.356-3.337 4.84-5.156 5.53-6.524 2.48-26.39.245-35.03-3.937-9.77-4.73-12.116-8.39-12.656-19.78-.292-6.17-.292-8.932 1-9zm2.5 28.72l5.188 2.688c7.102 3.678 19.983 6.546 30.094 6.72 5.148.088 8.37.71 8.375 1.594.004.8-.99 4.227-2.22 7.656-1.496 4.173-3.126 6.43-4.906 6.813-7.608 1.63-12.876 1.355-23.906-1.312-6.668-1.612-12.395-3.24-12.75-3.594s-.492-5.112-.28-10.594zm-1.312 26l5.22.813c2.868.442 9.495 1.645 14.75 2.688 6.71 1.33 10.9 1.52 14.03.656 5.425-1.498 5.44-1.228 1.188 10.563-1.792 4.97-3.25 10.092-3.25 11.406s-.928 2.752-2.062 3.188c-7.293 2.8-22.423-1.12-29.875-7.75l-4.906-4.375 2.438-8.594zm8.594 34.188a3.57 3.57 0 0 1 1.438.25c1.04.416.706.72-.812.78-1.374.057-2.12-.254-1.687-.687.217-.217.6-.325 1.063-.344zm14.313 1.28a3.57 3.57 0 0 1 1.438.25c1.04.416.737.75-.78.813-1.374.057-2.152-.254-1.72-.687.217-.217.6-.356 1.063-.375zm14.188 1.438c2.28.092 14.406 10.962 14.406 13.03 0 1.208-1.106 1.128-9.78-.72-8.708-1.854-10.714-3.853-8.344-8.28.98-1.834 2.568-3.63 3.53-4 .052-.02.114-.034.188-.03zm-90.78 18.22c.27.034.657.314 1.125.78.848.848 1.245 1.848.875 2.22-.87.87-2.406-.697-2.406-2.437 0-.408.138-.597.406-.562zm-6.437.063c2.475 0 3.412 1.046 4.625 5.094.836 2.8 3.364 7.26 5.625 9.938 8.06 9.543 7.733 8.978 5.22 9-1.258.01-2.703-.618-3.22-1.406-.672-1.026-1.664-.97-3.53.188-2.253 1.396-2.845 1.2-4.22-1.312-.875-1.606-1.51-6.284-1.406-10.406.167-6.725-1.252-9.993-2.594-5.97-.742 2.225-3.594.04-3.594-2.75 0-1.624.966-2.375 3.094-2.375zm10.188 6.375c.17-.015.415.148.72.53.54.68 2.953 3.392 5.344 6s3.81 5.065 3.156 5.47c-1.252.774-9.47-9.1-9.47-11.375 0-.41.08-.6.25-.625zm68.47 14.22c2.496.033 2.97.544 2.97 1.72 0 1.18-1.027 2.148-2.28 2.156s-4.334.246-6.844.53c-5.14.585-16.343-.81-17.75-2.22-.508-.508.838-.937 3-.937s8.42-.38 13.906-.844c3.275-.277 5.503-.426 7-.406zm-75.156 7.22c.34 0 .76.06 1.25.188 2.07.54 2.296 1.057 1.125 2.47-2.104 2.535-3.75 2.23-3.75-.687 0-1.39.358-1.97 1.375-1.97zm-34.22 8.906c1.792.008 3.16.91 5.5 3.25 2.118 2.118 3.875 4.776 3.875 5.906 0 1.388-1.225 2.03-3.72 2.03-2.03 0-4.025-.338-4.437-.75-.825-.825-4.272-1.595-7.812-1.75-2.65-.116-3.095-4.36-.656-6.28.896-.706 3.276-1.677 5.28-2.156a8.21 8.21 0 0 1 1.969-.25zm25.375 19.156c.344.02.863.135 1.594.344 9.118 2.602 16.904 3.38 34.688 3.5 11.83.08 21.592-.465 23.813-1.312 2.07-.79 4.125-1.062 4.563-.625 1.06 1.06-3.7 4.475-6.28 4.5-1.118.01-4.382.873-7.25 1.906-3.208 1.156-10.23 1.862-18.25 1.875-11.015.017-14.34-.486-21.5-3.344-7.302-2.915-13.786-6.988-11.375-6.844z"/></g></svg>