<svg xmlns="http://www.w3.org/2000/svg" width="631.325" height="393.301" viewBox="0 0 167.038 104.061"  xmlns:v="https://vecta.io/nano"><style><![CDATA[.B{fill-rule:evenodd}.C{stroke-width:.265}.D{filter:url(#B)}.E{color-interpolation-filters:sRGB}]]></style><defs><linearGradient id="A" x1="75.529" y1="157" x2="85" y2="157" gradientUnits="userSpaceOnUse"><stop offset="0" stop-color="#666"/><stop offset="1" stop-color="#666" stop-opacity="0"/></linearGradient><filter id="B" class="E"><feGaussianBlur stdDeviation="2.3" in="SourceAlpha" result="A"/><feMorphology in="SourceAlpha" radius="6.6"/><feGaussianBlur stdDeviation="8.9"/><feColorMatrix values="1 0 0 0 0 0 1 0 0 0 0 0 1 0 0 0 0 0 0.3 0"/><feComposite in="A" operator="out"/><feGaussianBlur stdDeviation="1.7" result="E"/><feDiffuseLighting surfaceScale="10"><feDistantLight azimuth="225" elevation="45"/></feDiffuseLighting><feBlend in2="SourceGraphic" mode="multiply"/><feComposite in2="SourceAlpha" operator="in" result="F"/><feSpecularLighting in="E" surfaceScale="5" specularExponent="17.89999962"><feDistantLight azimuth="225" elevation="45"/></feSpecularLighting><feComposite in2="F" operator="atop"/></filter><filter id="C" class="E"><feGaussianBlur stdDeviation=".297"/></filter></defs><g transform="matrix(.5 -.866025 .866025 .5 -83.658315 51.697286)"><g stroke="#000" class="B C"><path d="M77.117 97v-5.58c-2.457-1.676-1.75-3.35 0-5.027-1.395-1.588-2.74-3.175 0-4.763-1.163-1.588-2.285-3.175 0-4.763-2.048-1.676-1.46-3.35 0-5.027-2.23-3.495-2-1.855 0-4.84h5.767v30z" fill="#1a1a1a"/><path d="M76.058 97l.53 124.288L80 234.823l3.412-13.535L83.942 97z" fill="url(#A)"/></g><path d="M80 97v132.992" fill="none" stroke="#000" filter="url(#C)" class="C"/><g fill="#ff0" class="D"><path transform="matrix(1.118565 0 0 .990295 -11.178874 .803663)" d="M85.196 98.563c2.1-1.302 4.45-1.93 7.938.265.552-3.314-15.014-3.614-18.256-4.233-2.34-.447-3.794-3.028-5.083-5.032-1.527-2.375-1.44-3.58-2.6-7.668-1.92-6.823 9.434-16.76 10.61-15.08-1.264-3.03-14.796 8.596-13.2 16.94l1.002 5.286c.35 1.808 1.245 2.61 2.117 4.233.652 1.214 1.404 2.58 2.646 3.175 4.454 2.135 14.817 2.117 14.817 2.117z" stroke="#000" class="B C"/><rect ry="2.381" y="62.315" x="75.142" height="5.027" width="9.525"/><ellipse transform="matrix(1.395474 0 0 .829645 -36.522318 19.901207)" ry="1.984" rx="1.191" cy="96.314" cx="93.53"/></g><path d="M80.45 98.8v131.19" fill="#fff" stroke="#fff" stroke-width=".263" class="B"/></g></svg>