<svg xmlns="http://www.w3.org/2000/svg" viewBox="0 0 475.131 475.131"  xmlns:v="https://vecta.io/nano"><path d="M438.562 279.483c-20.164 0-36.57 16.405-36.57 36.57v18.604c0 31.128-25.324 56.452-56.452 56.452s-56.453-25.324-56.453-56.452v-49.418c0-44.208-35.966-80.174-80.173-80.174H195.81v-.64a7.5 7.5 0 0 0-7.5-7.5h-43.08V83.498c0-40.04-32.575-72.615-72.615-72.615S0 43.458 0 83.498v199.18c0 40.04 32.575 72.615 72.615 72.615 38.8 0 70.606-30.605 72.522-68.948H188.3a7.5 7.5 0 0 0 7.5-7.5v-.64h13.104c3.88 0 7.035 3.156 7.035 7.035v49.418c0 71.457 58.134 129.59 129.59 129.59s129.59-58.134 129.59-129.59v-18.604c0-20.164-16.405-36.57-36.57-36.57zm21.57 55.174c0 63.186-51.405 114.59-114.59 114.59s-114.59-51.405-114.59-114.59V285.24c0-12.15-9.885-22.035-22.035-22.035H195.8v-15.27a7.5 7.5 0 1 0-15 0v23.4H95.29a7.5 7.5 0 1 0 0 15H130.1c-1.9 30.066-26.95 53.948-57.486 53.948-31.77 0-57.615-25.846-57.615-57.615V83.498c0-31.77 25.846-57.615 57.615-57.615S130.23 51.73 130.23 83.498v113.43H95.29c-24.652 0-44.71 20.056-44.71 44.708a7.5 7.5 0 1 0 15 0c0-16.38 13.327-29.708 29.71-29.708h42.383c.02 0 .04.003.058.003s.038-.003.058-.003H180.8v.64a7.5 7.5 0 0 0 7.5 7.5c.013 0 .026-.002.04-.002h20.565c35.937 0 65.173 29.237 65.173 65.174v49.418c0 39.398 32.054 71.452 71.453 71.452s71.452-32.054 71.452-71.452v-18.604c0-11.894 9.676-21.57 21.57-21.57s21.57 9.676 21.57 21.57v18.603zM353.04 429.03a7.5 7.5 0 0 1-7.5 7.5 102.6 102.6 0 0 1-15.05-1.11 7.5 7.5 0 0 1-6.315-8.521c.608-4.097 4.428-6.923 8.52-6.315a87.67 87.67 0 0 0 12.845.946 7.5 7.5 0 0 1 7.499 7.5zm-48.2-8.904c-1.39 2.4-3.908 3.74-6.495 3.74a7.46 7.46 0 0 1-3.755-1.013c-31.4-18.21-50.923-52.005-50.923-88.194a7.5 7.5 0 1 1 15 0c0 30.858 16.647 59.68 43.446 75.218a7.5 7.5 0 0 1 2.727 10.25zM119.3 120.015c0-25.74-20.942-46.683-46.684-46.683S25.93 94.273 25.93 120.015 46.873 166.7 72.615 166.7s46.684-20.943 46.684-46.684zm-78.367 0c0-17.47 14.213-31.683 31.684-31.683s31.684 14.213 31.684 31.683S90.087 151.7 72.616 151.7s-31.684-14.214-31.684-31.684zm31.683 20.56a7.5 7.5 0 0 1-7.5-7.5v-5.562h-5.562a7.5 7.5 0 1 1 0-15h5.562v-5.56a7.5 7.5 0 1 1 15 0v5.56h5.562a7.5 7.5 0 1 1 0 15h-5.562v5.562a7.5 7.5 0 0 1-7.5 7.5z"/></svg>